; OM File Header - Saved 2024/04/11 20:33:46
; (7.04 :patc (om-make-point 23 126) (om-make-point 521 123) (om-make-point 370 466) "" 183 0 nil "2024/04/10 14:20:05")
; End File Header
; External resources 
; (list (list (quote :abstraction) "#P\"all-different.omp\""))
(in-package :om)(load-lib-for (quote nil))(setf *om-current-persistent* (om-load-patch1 "all-differentv" (quote ((let ((box (om-load-boxcall (quote patch-box) "all-different" (quote ("elements" "OM-Screamer-tutorial-patches" "02-screamer-solver" "tools" "all-different")) (quote ((om-load-inputfun (quote input-funbox) "" "x" nil) (om-load-inputfun (quote input-funbox) "" "xs" nil))) (om-make-point 138 215) nil nil nil nil 1))) (when (fboundp (quote set-active)) (set-active box nil)) box) (let ((box (om-load-boxout "output" 0 (om-make-point 150 342) (quote ((om-load-inputfun (quote input-funbox) "" "out" nil))) nil nil))) (when (fboundp (quote set-active)) (set-active box nil)) box) (let ((box (om-load-boxcall (quote lispfun) "CDR" (quote cdr) (quote ((om-load-inputfun (quote input-funbox) "X" "X" nil))) (om-make-point 216 110) nil nil nil nil 1))) (when (fboundp (quote set-active)) (set-active box nil)) box) (let ((box (om-load-boxcall (quote lispfun) "CAR" (quote car) (quote ((om-load-inputfun (quote input-funbox) "X" "X" nil))) (om-make-point 118 110) nil nil nil nil 1))) (when (fboundp (quote set-active)) (set-active box nil)) box) (let ((box (om-load-boxin "input" 0 (om-make-point 167 0) "" nil nil nil))) (when (fboundp (quote set-active)) (set-active box nil)) box))) (quote ((3 0 0 0 nil 0) (2 0 0 1 nil 0) (0 0 1 0 nil 0) (4 0 2 0 nil 0) (4 0 3 0 nil 0))) nil 7.02))
