; OM File Header - Saved 2024/04/19 17:12:01
; (7.04 :patc (om-make-point 51 95) (om-make-point 305 130) (om-make-point 311 374) "" 183 0 nil "2024/04/19 17:09:52")
; End File Header
(in-package :om)(load-lib-for (quote ("OM-Screamer")))(setf *om-current-persistent* (om-load-patch1 "01-p-variables" (quote ((let ((box (om-load-boxcall (quote bastype) "aux" (quote t) (quote nil) (om-make-point 187 145) (om-make-point 38 30) (quote :all) ":all" nil))) (when (fboundp (quote set-active)) (set-active box nil)) box) (let ((box (om-load-boxcall (quote abstraction) "*v-100" (om-load-patch-abs1 "*v-100" (quote ((let ((box (om-load-boxout "output" 0 (om-make-point 146 227) (quote ((om-load-inputfun (quote input-funbox) "" "out" nil))) nil nil))) (when (fboundp (quote set-active)) (set-active box nil)) box) (let ((box (om-load-boxcall (quote bastype) "aux" (quote t) (quote nil) (om-make-point 187 94) (om-make-point 41 30) 100 "100" nil))) (when (fboundp (quote set-active)) (set-active box nil)) box) (let ((box (om-load-boxcall (quote lispfun) "*V" (quote screamer:*v) (quote ((om-load-inputfun (quote input-funbox) "add-input" "add-input" nil) (om-load-inputfun (quote input-funbox) "add-input" "add-input" nil))) (om-make-point 157 141) nil nil nil nil 1))) (when (fboundp (quote set-active)) (set-active box nil)) box) (let ((box (om-load-boxin "input" 0 (om-make-point 118 43) "" nil nil nil))) (when (fboundp (quote set-active)) (set-active box nil)) box))) (quote ((2 0 0 0 nil 0) (3 0 2 0 nil 0) (1 0 2 1 nil 0))) 7.04 nil "" (om-make-point 200 200) (om-make-point 400 500)) (quote ((om-load-inputfun (quote input-funbox) "" "input" nil))) (om-make-point 145 77) nil (list nil) "l" "*v-100"))) (when (fboundp (quote set-active)) (set-active box nil)) box) (let ((box (om-load-boxcall (quote genfun) "SCREAMER-VARIABLE" (quote screamer-variable) (quote ((om-load-inputfunmenu1 (quote input-funmenu) "screamer-variable" "VAR" "an-integer-betweenv" (list (list "an-integer-betweenv" "an-integer-betweenv") (list "a-member-ofv" "a-member-ofv") (list "a-random-member-ofv" "a-random-member-ofv") (list "an-integerv" "an-integerv") (list "an-integer-abovev" "an-integer-abovev") (list "an-integer-belowv" "an-integer-belowv") (list "a-realv" "a-realv") (list "a-real-abovev" "a-real-abovev") (list "a-real-belowv" "a-real-belowv") (list "a-real-betweenv" "a-real-betweenv") (list "a-numberv" "a-numberv") (list "a-booleanv" "a-booleanv"))) (om-load-inputfun (quote input-funbox) "list" "ARGS" (list 60 72)))) (om-make-point 29 76) nil nil nil nil 1))) (when (fboundp (quote set-active)) (set-active box nil)) box) (let ((box (om-load-boxcall (quote genfun) "SCREAMER-SOLVER" (quote screamer-solver) (quote ((om-load-inputfun (quote input-funbox) "variable or list" "VARIABLES" nil) (om-load-inputkeyword (quote input-keyword) "propagation-variables<lambda-patch>" "p-variables" (quote :p-variables) nil nil) (om-load-inputkeyword (quote input-keyword) "list" "output" (quote :output) nil nil))) (om-make-point 90 186) nil nil nil nil 1))) (when (fboundp (quote set-active)) (set-active box nil)) box))) (quote ((2 0 3 0 nil 0) (1 0 3 1 nil 0) (0 0 3 2 nil 0))) nil 7.04))
