; OM File Header - Saved 2024/04/19 17:16:49
; (7.04 :patc (om-make-point 177 93) (om-make-point 61 61) (om-make-point 1284 582) "" 183 0 nil "2024/04/19 17:13:55")
; End File Header
(in-package :om)(load-lib-for (quote ("OM-Screamer")))(setf *om-current-persistent* (om-load-patch1 "05-output-options" (quote ((let ((box (om-load-boxcall (quote bastype) "aux 7" (quote t) (quote nil) (om-make-point 143 341) (om-make-point 37 30) (list 1) "(1)" nil))) (when (fboundp (quote set-active)) (set-active box nil)) box) (let ((box (om-load-boxcall (quote genfun) "SCREAMER-SOLVER 7" (quote screamer-solver) (quote ((om-load-inputfun (quote input-funbox) "variable or list" "VARIABLES" nil) (om-load-inputkeyword (quote input-keyword) "list" "output" (quote :output) nil nil))) (om-make-point 83 371) nil nil nil nil 1))) (when (fboundp (quote set-active)) (set-active box nil)) box) (let ((box (om-load-boxcall (quote genfun) "LIST-OF-LISTS-OFV 7" (quote list-of-lists-ofv) (quote ((om-load-inputfun (quote input-funbox) "list" "N-VARS" (list 3 4 3)) (om-load-inputfunmenu1 (quote input-funmenu) "screamer-variable" "VARIABLES" "an-integer-betweenv" (list (list "an-integer-betweenv" "an-integer-betweenv") (list "a-member-ofv" "a-member-ofv") (list "a-random-member-ofv" "a-random-member-ofv") (list "an-integerv" "an-integerv") (list "an-integer-abovev" "an-integer-abovev") (list "an-integer-belowv" "an-integer-belowv") (list "a-realv" "a-realv") (list "a-real-abovev" "a-real-abovev") (list "a-real-belowv" "a-real-belowv") (list "a-real-betweenv" "a-real-betweenv") (list "a-numberv" "a-numberv") (list "a-booleanv" "a-booleanv"))) (om-load-inputfun (quote input-funbox) "list" "ARGS" (list 60 72)))) (om-make-point 31 285) nil nil nil nil 1))) (when (fboundp (quote set-active)) (set-active box nil)) box) (let ((box (om-load-boxcall (quote bastype) "aux 6" (quote t) (quote nil) (om-make-point 36 239) (om-make-point 59 30) (list 3 4 3) "(3 4 3)" nil))) (when (fboundp (quote set-active)) (set-active box nil)) box) (let ((box (om-load-boxcall (quote genfun) "LIST-OF-LISTS-OFV 6" (quote list-of-lists-ofv) (quote ((om-load-inputfun (quote input-funbox) "list" "N-VARS" (list 3 4 3)) (om-load-inputfunmenu1 (quote input-funmenu) "screamer-variable" "VARIABLES" "an-integer-betweenv" (list (list "an-integer-betweenv" "an-integer-betweenv") (list "a-member-ofv" "a-member-ofv") (list "a-random-member-ofv" "a-random-member-ofv") (list "an-integerv" "an-integerv") (list "an-integer-abovev" "an-integer-abovev") (list "an-integer-belowv" "an-integer-belowv") (list "a-realv" "a-realv") (list "a-real-abovev" "a-real-abovev") (list "a-real-belowv" "a-real-belowv") (list "a-real-betweenv" "a-real-betweenv") (list "a-numberv" "a-numberv") (list "a-booleanv" "a-booleanv"))) (om-load-inputfun (quote input-funbox) "list" "ARGS" (list 60 72)))) (om-make-point 150 34) nil nil nil nil 1))) (when (fboundp (quote set-active)) (set-active box nil)) box) (let ((box (om-load-boxcall (quote genfun) "SCREAMER-SOLVER 6" (quote screamer-solver) (quote ((om-load-inputfun (quote input-funbox) "variable or list" "VARIABLES" nil) (om-load-inputkeyword (quote input-keyword) "propagation-variables<lambda-patch>" "p-variables" (quote :p-variables) nil nil) (om-load-inputkeyword (quote input-keyword) "list" "output" (quote :output) nil nil))) (om-make-point 200 151) nil nil nil nil 1))) (when (fboundp (quote set-active)) (set-active box nil)) box) (let ((box (om-load-boxcall (quote abstraction) "*v-100 5" (om-load-patch-abs1 "*v-100" (quote ((let ((box (om-load-boxcall (quote genfun) "OM*V" (quote om*v) (quote ((om-load-inputfun (quote input-funbox) "variable, number or list" "ARG1" 0) (om-load-inputfun (quote input-funbox) "variable, number or list" "ARG2" 0))) (om-make-point 144 219) (om-make-point 26 35) nil nil nil 1))) (when (fboundp (quote set-active)) (set-active box nil)) box) (let ((box (om-load-boxout "output" 0 (om-make-point 133 326) (quote ((om-load-inputfun (quote input-funbox) "" "out" nil))) nil nil))) (when (fboundp (quote set-active)) (set-active box nil)) box) (let ((box (om-load-boxin "input" 0 (om-make-point 106 18) "" nil nil nil))) (when (fboundp (quote set-active)) (set-active box nil)) box) (let ((box (om-load-boxcall (quote bastype) "aux" (quote t) (quote nil) (om-make-point 180 158) (om-make-point 41 30) 100 "100" nil))) (when (fboundp (quote set-active)) (set-active box nil)) box))) (quote ((2 0 0 0 nil 0) (3 0 0 1 nil 0) (0 0 1 0 nil 0))) 7.04 nil "" (om-make-point 200 200) (om-make-point 500 400)) (quote ((om-load-inputfun (quote input-funbox) "" "input" nil))) (om-make-point 268 41) nil (list nil) "l" "*v-100"))) (when (fboundp (quote set-active)) (set-active box nil)) box) (let ((box (om-load-boxcall (quote genfun) "SCREAMER-SOLVER 5" (quote screamer-solver) (quote ((om-load-inputfun (quote input-funbox) "variable or list" "VARIABLES" nil) (om-load-inputkeyword (quote input-keyword) "propagation-variables<lambda-patch>" "p-variables" (quote :p-variables) nil nil) (om-load-inputkeyword (quote input-keyword) "list" "output" (quote :output) nil nil))) (om-make-point 1093 168) nil nil nil nil 1))) (when (fboundp (quote set-active)) (set-active box nil)) box) (let ((box (om-load-boxcall (quote genfun) "LIST-OF-LISTS-OFV 5" (quote list-of-lists-ofv) (quote ((om-load-inputfun (quote input-funbox) "list" "N-VARS" (list 3 4 3)) (om-load-inputfunmenu1 (quote input-funmenu) "screamer-variable" "VARIABLES" "an-integer-betweenv" (list (list "an-integer-betweenv" "an-integer-betweenv") (list "a-member-ofv" "a-member-ofv") (list "a-random-member-ofv" "a-random-member-ofv") (list "an-integerv" "an-integerv") (list "an-integer-abovev" "an-integer-abovev") (list "an-integer-belowv" "an-integer-belowv") (list "a-realv" "a-realv") (list "a-real-abovev" "a-real-abovev") (list "a-real-belowv" "a-real-belowv") (list "a-real-betweenv" "a-real-betweenv") (list "a-numberv" "a-numberv") (list "a-booleanv" "a-booleanv"))) (om-load-inputfun (quote input-funbox) "list" "ARGS" (list 60 72)))) (om-make-point 1063 53) nil nil nil nil 1))) (when (fboundp (quote set-active)) (set-active box nil)) box) (let ((box (om-load-boxcall (quote abstraction) "*v-100 4" (om-load-patch-abs1 "*v-100" (quote ((let ((box (om-load-boxcall (quote genfun) "OM*V" (quote om*v) (quote ((om-load-inputfun (quote input-funbox) "variable, number or list" "ARG1" 0) (om-load-inputfun (quote input-funbox) "variable, number or list" "ARG2" 0))) (om-make-point 144 219) (om-make-point 26 35) nil nil nil 1))) (when (fboundp (quote set-active)) (set-active box nil)) box) (let ((box (om-load-boxout "output" 0 (om-make-point 133 326) (quote ((om-load-inputfun (quote input-funbox) "" "out" nil))) nil nil))) (when (fboundp (quote set-active)) (set-active box nil)) box) (let ((box (om-load-boxin "input" 0 (om-make-point 106 18) "" nil nil nil))) (when (fboundp (quote set-active)) (set-active box nil)) box) (let ((box (om-load-boxcall (quote bastype) "aux" (quote t) (quote nil) (om-make-point 180 158) (om-make-point 41 30) 100 "100" nil))) (when (fboundp (quote set-active)) (set-active box nil)) box))) (quote ((2 0 0 0 nil 0) (3 0 0 1 nil 0) (0 0 1 0 nil 0))) 7.04 nil "" (om-make-point 200 200) (om-make-point 500 400)) (quote ((om-load-inputfun (quote input-funbox) "" "input" nil))) (om-make-point 1179 59) nil (list nil) "l" "*v-100"))) (when (fboundp (quote set-active)) (set-active box nil)) box) (let ((box (om-load-boxcall (quote bastype) "aux" (quote t) (quote nil) (om-make-point 1218 127) (om-make-point 38 30) (quote :all) ":all" nil))) (when (fboundp (quote set-active)) (set-active box nil)) box) (let ((box (om-load-boxcall (quote bastype) "aux 5" (quote t) (quote nil) (om-make-point 69 16) (om-make-point 59 30) (list 3 4 3) "(3 4 3)" nil))) (when (fboundp (quote set-active)) (set-active box nil)) box) (let ((box (om-load-boxcall (quote bastype) "aux 4" (quote t) (quote nil) (om-make-point 959 128) (om-make-point 64 30) (list (list 1) nil) "((1) nil)" nil))) (when (fboundp (quote set-active)) (set-active box nil)) box) (let ((box (om-load-boxcall (quote genfun) "SCREAMER-SOLVER 4" (quote screamer-solver) (quote ((om-load-inputfun (quote input-funbox) "variable or list" "VARIABLES" nil) (om-load-inputkeyword (quote input-keyword) "propagation-variables<lambda-patch>" "p-variables" (quote :p-variables) nil nil) (om-load-inputkeyword (quote input-keyword) "list" "output" (quote :output) nil nil))) (om-make-point 850 171) nil nil nil nil 1))) (when (fboundp (quote set-active)) (set-active box nil)) box) (let ((box (om-load-boxcall (quote abstraction) "*v-100 3" (om-load-patch-abs1 "*v-100" (quote ((let ((box (om-load-boxcall (quote genfun) "OM*V" (quote om*v) (quote ((om-load-inputfun (quote input-funbox) "variable, number or list" "ARG1" 0) (om-load-inputfun (quote input-funbox) "variable, number or list" "ARG2" 0))) (om-make-point 144 219) (om-make-point 26 35) nil nil nil 1))) (when (fboundp (quote set-active)) (set-active box nil)) box) (let ((box (om-load-boxout "output" 0 (om-make-point 133 326) (quote ((om-load-inputfun (quote input-funbox) "" "out" nil))) nil nil))) (when (fboundp (quote set-active)) (set-active box nil)) box) (let ((box (om-load-boxin "input" 0 (om-make-point 106 18) "" nil nil nil))) (when (fboundp (quote set-active)) (set-active box nil)) box) (let ((box (om-load-boxcall (quote bastype) "aux" (quote t) (quote nil) (om-make-point 180 158) (om-make-point 41 30) 100 "100" nil))) (when (fboundp (quote set-active)) (set-active box nil)) box))) (quote ((2 0 0 0 nil 0) (3 0 0 1 nil 0) (0 0 1 0 nil 0))) 7.04 nil "" (om-make-point 200 200) (om-make-point 500 400)) (quote ((om-load-inputfun (quote input-funbox) "" "input" nil))) (om-make-point 917 60) nil (list nil) "l" "*v-100"))) (when (fboundp (quote set-active)) (set-active box nil)) box) (let ((box (om-load-boxcall (quote genfun) "LIST-OF-LISTS-OFV 4" (quote list-of-lists-ofv) (quote ((om-load-inputfun (quote input-funbox) "list" "N-VARS" (list 3 4 3)) (om-load-inputfunmenu1 (quote input-funmenu) "screamer-variable" "VARIABLES" "an-integer-betweenv" (list (list "an-integer-betweenv" "an-integer-betweenv") (list "a-member-ofv" "a-member-ofv") (list "a-random-member-ofv" "a-random-member-ofv") (list "an-integerv" "an-integerv") (list "an-integer-abovev" "an-integer-abovev") (list "an-integer-belowv" "an-integer-belowv") (list "a-realv" "a-realv") (list "a-real-abovev" "a-real-abovev") (list "a-real-belowv" "a-real-belowv") (list "a-real-betweenv" "a-real-betweenv") (list "a-numberv" "a-numberv") (list "a-booleanv" "a-booleanv"))) (om-load-inputfun (quote input-funbox) "list" "ARGS" (list 60 72)))) (om-make-point 801 54) nil nil nil nil 1))) (when (fboundp (quote set-active)) (set-active box nil)) box) (let ((box (om-load-boxcall (quote bastype) "aux 3" (quote t) (quote nil) (om-make-point 741 131) (om-make-point 64 30) (list nil (list 1)) "(nil (1))" nil))) (when (fboundp (quote set-active)) (set-active box nil)) box) (let ((box (om-load-boxcall (quote genfun) "SCREAMER-SOLVER 3" (quote screamer-solver) (quote ((om-load-inputfun (quote input-funbox) "variable or list" "VARIABLES" nil) (om-load-inputkeyword (quote input-keyword) "propagation-variables<lambda-patch>" "p-variables" (quote :p-variables) nil nil) (om-load-inputkeyword (quote input-keyword) "list" "output" (quote :output) nil nil))) (om-make-point 631 173) nil nil nil nil 1))) (when (fboundp (quote set-active)) (set-active box nil)) box) (let ((box (om-load-boxcall (quote abstraction) "*v-100 2" (om-load-patch-abs1 "*v-100" (quote ((let ((box (om-load-boxcall (quote genfun) "OM*V" (quote om*v) (quote ((om-load-inputfun (quote input-funbox) "variable, number or list" "ARG1" 0) (om-load-inputfun (quote input-funbox) "variable, number or list" "ARG2" 0))) (om-make-point 144 219) (om-make-point 26 35) nil nil nil 1))) (when (fboundp (quote set-active)) (set-active box nil)) box) (let ((box (om-load-boxout "output" 0 (om-make-point 133 326) (quote ((om-load-inputfun (quote input-funbox) "" "out" nil))) nil nil))) (when (fboundp (quote set-active)) (set-active box nil)) box) (let ((box (om-load-boxin "input" 0 (om-make-point 106 18) "" nil nil nil))) (when (fboundp (quote set-active)) (set-active box nil)) box) (let ((box (om-load-boxcall (quote bastype) "aux" (quote t) (quote nil) (om-make-point 180 158) (om-make-point 41 30) 100 "100" nil))) (when (fboundp (quote set-active)) (set-active box nil)) box))) (quote ((2 0 0 0 nil 0) (3 0 0 1 nil 0) (0 0 1 0 nil 0))) 7.04 nil "" (om-make-point 200 200) (om-make-point 500 400)) (quote ((om-load-inputfun (quote input-funbox) "" "input" nil))) (om-make-point 701 63) nil (list nil) "l" "*v-100"))) (when (fboundp (quote set-active)) (set-active box nil)) box) (let ((box (om-load-boxcall (quote genfun) "LIST-OF-LISTS-OFV 3" (quote list-of-lists-ofv) (quote ((om-load-inputfun (quote input-funbox) "list" "N-VARS" (list 3 4 3)) (om-load-inputfunmenu1 (quote input-funmenu) "screamer-variable" "VARIABLES" "an-integer-betweenv" (list (list "an-integer-betweenv" "an-integer-betweenv") (list "a-member-ofv" "a-member-ofv") (list "a-random-member-ofv" "a-random-member-ofv") (list "an-integerv" "an-integerv") (list "an-integer-abovev" "an-integer-abovev") (list "an-integer-belowv" "an-integer-belowv") (list "a-realv" "a-realv") (list "a-real-abovev" "a-real-abovev") (list "a-real-belowv" "a-real-belowv") (list "a-real-betweenv" "a-real-betweenv") (list "a-numberv" "a-numberv") (list "a-booleanv" "a-booleanv"))) (om-load-inputfun (quote input-funbox) "list" "ARGS" (list 60 72)))) (om-make-point 583 56) nil nil nil nil 1))) (when (fboundp (quote set-active)) (set-active box nil)) box) (let ((box (om-load-boxcall (quote bastype) "aux 2" (quote t) (quote nil) (om-make-point 477 120) (om-make-point 90 30) (list (list 0 1 2) (list 1)) "((0 1 2) (1))" nil))) (when (fboundp (quote set-active)) (set-active box nil)) box) (let ((box (om-load-boxcall (quote abstraction) "*v-100" (om-load-patch-abs1 "*v-100" (quote ((let ((box (om-load-boxcall (quote genfun) "OM*V" (quote om*v) (quote ((om-load-inputfun (quote input-funbox) "variable, number or list" "ARG1" 0) (om-load-inputfun (quote input-funbox) "variable, number or list" "ARG2" 0))) (om-make-point 144 219) (om-make-point 26 35) nil nil nil 1))) (when (fboundp (quote set-active)) (set-active box nil)) box) (let ((box (om-load-boxout "output" 0 (om-make-point 133 326) (quote ((om-load-inputfun (quote input-funbox) "" "out" nil))) nil nil))) (when (fboundp (quote set-active)) (set-active box nil)) box) (let ((box (om-load-boxin "input" 0 (om-make-point 106 18) "" nil nil nil))) (when (fboundp (quote set-active)) (set-active box nil)) box) (let ((box (om-load-boxcall (quote bastype) "aux" (quote t) (quote nil) (om-make-point 180 158) (om-make-point 41 30) 100 "100" nil))) (when (fboundp (quote set-active)) (set-active box nil)) box))) (quote ((2 0 0 0 nil 0) (3 0 0 1 nil 0) (0 0 1 0 nil 0))) 7.04 nil "" (om-make-point 200 200) (om-make-point 400 500)) (quote ((om-load-inputfun (quote input-funbox) "" "input" nil))) (om-make-point 438 52) nil (list nil) "l" "*v-100"))) (when (fboundp (quote set-active)) (set-active box nil)) box) (let ((box (om-load-boxcall (quote genfun) "SCREAMER-SOLVER 2" (quote screamer-solver) (quote ((om-load-inputfun (quote input-funbox) "variable or list" "VARIABLES" nil) (om-load-inputkeyword (quote input-keyword) "propagation-variables<lambda-patch>" "p-variables" (quote :p-variables) nil nil) (om-load-inputkeyword (quote input-keyword) "list" "output" (quote :output) nil nil))) (om-make-point 370 162) nil nil nil nil 1))) (when (fboundp (quote set-active)) (set-active box nil)) box) (let ((box (om-load-boxcall (quote genfun) "LIST-OF-LISTS-OFV 2" (quote list-of-lists-ofv) (quote ((om-load-inputfun (quote input-funbox) "list" "N-VARS" (list 3 4 3)) (om-load-inputfunmenu1 (quote input-funmenu) "screamer-variable" "VARIABLES" "an-integer-betweenv" (list (list "an-integer-betweenv" "an-integer-betweenv") (list "a-member-ofv" "a-member-ofv") (list "a-random-member-ofv" "a-random-member-ofv") (list "an-integerv" "an-integerv") (list "an-integer-abovev" "an-integer-abovev") (list "an-integer-belowv" "an-integer-belowv") (list "a-realv" "a-realv") (list "a-real-abovev" "a-real-abovev") (list "a-real-belowv" "a-real-belowv") (list "a-real-betweenv" "a-real-betweenv") (list "a-numberv" "a-numberv") (list "a-booleanv" "a-booleanv"))) (om-load-inputfun (quote input-funbox) "list" "ARGS" (list 60 72)))) (om-make-point 320 45) nil nil nil nil 1))) (when (fboundp (quote set-active)) (set-active box nil)) box) (let ((box (om-load-boxcall (quote genfun) "LIST-OF-LISTS-OFV" (quote list-of-lists-ofv) (quote ((om-load-inputfun (quote input-funbox) "list" "N-VARS" (list 3 4 3)) (om-load-inputfunmenu1 (quote input-funmenu) "screamer-variable" "VARIABLES" "an-integer-betweenv" (list (list "an-integer-betweenv" "an-integer-betweenv") (list "a-member-ofv" "a-member-ofv") (list "a-random-member-ofv" "a-random-member-ofv") (list "an-integerv" "an-integerv") (list "an-integer-abovev" "an-integer-abovev") (list "an-integer-belowv" "an-integer-belowv") (list "a-realv" "a-realv") (list "a-real-abovev" "a-real-abovev") (list "a-real-belowv" "a-real-belowv") (list "a-real-betweenv" "a-real-betweenv") (list "a-numberv" "a-numberv") (list "a-booleanv" "a-booleanv"))) (om-load-inputfun (quote input-funbox) "list" "ARGS" (list 60 72)))) (om-make-point 51 46) nil nil nil nil 1))) (when (fboundp (quote set-active)) (set-active box nil)) box) (let ((box (om-load-boxcall (quote genfun) "SCREAMER-SOLVER" (quote screamer-solver) (quote ((om-load-inputfun (quote input-funbox) "variable or list" "VARIABLES" nil) (om-load-inputkeyword (quote input-keyword) "list" "output" (quote :output) nil nil))) (om-make-point 83 163) nil nil nil nil 1))) (when (fboundp (quote set-active)) (set-active box nil)) box))) (quote ((2 0 1 0 nil 0) (0 0 1 1 nil 0) (3 0 2 0 nil 0) (4 0 5 0 nil 0) (6 0 5 1 nil 0) (8 0 7 0 nil 0) (9 0 7 1 nil 0) (10 0 7 2 nil 0) (15 0 13 0 nil 0) (14 0 13 1 nil 0) (12 0 13 2 nil 0) (19 0 17 0 nil 0) (18 0 17 1 nil 0) (16 0 17 2 nil 0) (23 0 22 0 nil 0) (21 0 22 1 nil 0) (20 0 22 2 nil 0) (11 0 24 0 nil 0) (24 0 25 0 nil 0))) nil 7.04))
