; OM File Header - Saved 2024/05/04 10:39:32
; (7.04 :patc (om-make-point 182 240) (om-make-point 18 23) (om-make-point 1303 708) "" 183 0 nil "2024/05/04 10:39:32")
; End File Header
(in-package :om)(load-lib-for (quote ("OM-Screamer")))(setf *om-current-persistent* (om-load-patch1 "07-apply-contv" (quote ((let ((box (om-load-boxcall (quote genfun) "LIST-OFVS 5" (quote list-ofvs) (quote ((om-load-inputfun (quote input-funbox) "integer" "N-VARS" 10) (om-load-inputfunmenu1 (quote input-funmenu) "screamer-variable" "VARIABLES" "a-random-member-ofv" (list (list "an-integer-betweenv" "an-integer-betweenv") (list "a-member-ofv" "a-member-ofv") (list "a-random-member-ofv" "a-random-member-ofv") (list "an-integerv" "an-integerv") (list "an-integer-abovev" "an-integer-abovev") (list "an-integer-belowv" "an-integer-belowv") (list "a-realv" "a-realv") (list "a-real-abovev" "a-real-abovev") (list "a-real-belowv" "a-real-belowv") (list "a-real-betweenv" "a-real-betweenv") (list "a-numberv" "a-numberv") (list "a-booleanv" "a-booleanv"))) (om-load-inputfun (quote input-funbox) "list" "ARGS" (list 11 10 9 8 7 5 4 3 2 1)))) (om-make-point 995 407) nil nil nil nil 1))) (when (fboundp (quote set-active)) (set-active box nil)) box) (let ((box (om-load-boxcall (quote abstraction) "apply-contv-off" (om-load-patch-abs1 "apply-contv-off" (quote ((let ((box (om-load-boxout "output" 0 (om-make-point 192 373) (quote ((om-load-inputfun (quote input-funbox) "" "out" nil))) nil nil))) (when (fboundp (quote set-active)) (set-active box nil)) box) (let ((box (om-load-boxcall (quote abstraction) "member-melodic-intervals" (om-load-patch-abs1 "member-melodic-intervals" (quote ((let ((box (om-load-boxcall (quote genfun) "ALL-MEMBERSV" (quote all-membersv) (quote ((om-load-inputfun (quote input-funbox) "variable or list" "LIST" (list 11 5 2)) (om-load-inputfun (quote input-funbox) "variable or list" "SEQUENCE" (list 0 2 4 5 7 9 11)))) (om-make-point 118 219) nil nil nil nil 1))) (when (fboundp (quote set-active)) (set-active box nil)) box) (let ((box (om-load-boxcall (quote genfun) "X->DX-ABSV" (quote x->dx-absv) (quote ((om-load-inputfun (quote input-funbox) "variable or list of variables" "LISTV" (list 1 2 3 4 5)))) (om-make-point 114 101) nil nil nil nil 1))) (when (fboundp (quote set-active)) (set-active box nil)) box) (let ((box (om-load-boxcall (quote bastype) "aux" (quote t) (quote nil) (om-make-point 176 171) (om-make-point 76 30) (list 100 200) "(100 200)" nil))) (when (fboundp (quote set-active)) (set-active box nil)) box) (let ((box (om-load-boxout "output" 0 (om-make-point 139 324) (quote ((om-load-inputfun (quote input-funbox) "" "out" nil))) nil nil))) (when (fboundp (quote set-active)) (set-active box nil)) box) (let ((box (om-load-boxin "input" 0 (om-make-point 134 3) "" nil nil nil))) (when (fboundp (quote set-active)) (set-active box nil)) box))) (quote ((1 0 0 0 nil 0) (2 0 0 1 nil 0) (4 0 1 0 nil 0) (0 0 3 0 nil 0))) 7.04 nil "" (om-make-point 200 200) (om-make-point 500 400)) (quote ((om-load-inputfun (quote input-funbox) "" "input" nil))) (om-make-point 70 155) nil nil "l" "member-melodic-intervals"))) (when (fboundp (quote set-active)) (set-active box nil)) box) (let ((box (om-load-boxcall (quote genfun) "APPLY-CONTV" (quote apply-contv) (quote ((om-load-inputfun (quote input-funbox) "patch in lambda mode" "CS" nil) (om-load-inputfunmenu1 (quote input-funmenu) "string" "MODE" "list" (list (list "atom" "atom") (list "list" "list"))) (om-load-inputfunmenu1 (quote input-funmenu) "string" "RECURSIVE?" "off" (list (list "off" "off") (list "n-inputs" "n-inputs") (list "car-cdr" "car-cdr") (list "growing" "growing"))) (om-load-inputfun (quote input-funbox) "list of variables" "VARS" nil))) (om-make-point 180 248) nil nil nil nil 1))) (when (fboundp (quote set-active)) (set-active box nil)) box) (let ((box (om-load-boxin "input" 0 (om-make-point 224 49) "" nil nil nil))) (when (fboundp (quote set-active)) (set-active box nil)) box))) (quote ((2 0 0 0 nil 0) (1 0 2 0 nil 0) (3 0 2 3 nil 0))) 7.04 nil "" (om-make-point 310 159) (om-make-point 459 437)) (quote ((om-load-inputfun (quote input-funbox) "" "input" nil))) (om-make-point 1062 401) nil (list nil) "l" "apply-contv-off"))) (when (fboundp (quote set-active)) (set-active box nil)) box) (let ((box (om-load-boxcall (quote genfun) "ARITHM-SER 3" (quote arithm-ser) (quote ((om-load-inputfun (quote input-funbox) "begin" "BEGIN" 6000) (om-load-inputfun (quote input-funbox) "end " "END" 7200) (om-load-inputfun (quote input-funbox) "step" "STEP" 100))) (om-make-point 1025 335) nil nil nil nil 1))) (when (fboundp (quote set-active)) (set-active box nil)) box) (let ((box (om-load-boxcall (quote genfun) "SCREAMER-SOLVER 5" (quote screamer-solver) (quote ((om-load-inputfun (quote input-funbox) "variable or list" "VARIABLES" nil) (om-load-inputkeyword (quote input-keyword) "constraint<lambda-patch> or list" "constraints" (quote :constraints) nil nil))) (om-make-point 1011 488) nil nil nil nil 1))) (when (fboundp (quote set-active)) (set-active box nil)) box) (let ((box (om-load-editor-box1 "CHORD-SEQ 3" (quote chord-seq) (quote ((om-load-inputfun (quote input-funbox) "object" "self" nil) (om-load-inputfun (quote input-funbox) "pitches (mc): list or list of lists" "lmidic" (list 6000)) (om-load-inputfun (quote input-funbox) "onsets (ms): list" "lonset" (list 0 500)) (om-load-inputfun (quote input-funbox) "durations (ms): list or list of lists" "ldur" (list 1000)) (om-load-inputfun (quote input-funbox) "velocities (0-127): list or list of lists" "lvel" (list 100)) (om-load-inputfun (quote input-funbox) "offsets (ms): list or list of lists" "loffset" (list 0)) (om-load-inputfun (quote input-funbox) "MIDI channels (1-16): list or list of lists" "lchan" (list 1)) (om-load-inputfun (quote input-funbox) "relative chords duration (0-100)" "legato" 0))) (om-make-point 933 574) (om-make-point 287 94) (let ((newobj (when (find-class (quote chord-seq) nil) (make-instance (quote chord-seq) :lmidic (quote ((7100) (7200) (7100) (7000) (6800) (6700) (6800) (6700) (6900) (6800))) :lonset (quote (0 500 1000 1500 2000 2500 3000 3500 4000 4500 5500)) :ldur (quote ((1000) (1000) (1000) (1000) (1000) (1000) (1000) (1000) (1000) (1000))) :lvel (quote ((100) (100) (100) (100) (100) (100) (100) (100) (100) (100))) :loffset (quote ((0) (0) (0) (0) (0) (0) (0) (0) (0) (0))) :lchan (quote ((1) (1) (1) (1) (1) (1) (1) (1) (1) (1))) :legato 0)))) (load-port-info newobj (quote ((0) (0) (0) (0) (0) (0) (0) (0) (0) (0)))) (init-mus-color newobj (quote nil)) (set-extra-pairs newobj (quote nil)) (set-patch-pairs newobj (quote nil)) (set-name newobj nil) (set-tonalite newobj nil) newobj) nil nil (pairlis (quote (approx fontsize staff cmnpref deltapict outport inport player zoom notechancolor? grillestep mode winsize winpos score-mode obj-mode cursor-mode show-stems scale onset measure)) (list 2 24 (quote g) (let ((newobj (make-instance (quote edition-values)))) (setf (paper-size newobj) (om-make-point 600 800)) (setf (top-margin newobj) 2) (setf (left-margin newobj) 1) (setf (right-margin newobj) 1) (setf (bottom-margin newobj) 1) (setf (orientation newobj) nil) (setf (scale newobj) nil) (setf (system-space newobj) (quote (1))) (setf (system-color newobj) (quote nil)) (setf (line-space newobj) 1) (setf (title newobj) nil) (setf (show-title? newobj) nil) (setf (show-page? newobj) nil) (setf (sheet-id newobj) nil) (setf (page-mode newobj) nil) newobj) (om-make-point 0 0) nil nil (quote :midi-player) 1 nil 1000 0 (om-make-point 623 286) (om-make-point 400 23) 0 1 (quote :normal) (quote t) nil 0 1)) t nil nil nil (quote nil)))) (when (fboundp (quote set-active)) (set-active box nil)) box) (let ((box (om-load-boxcall (quote bastype) "aux 7" (quote t) (quote nil) (om-make-point 89 377) (om-make-point 80 30) (list 3 4 3 4 3) "(3 4 3 4 3)" nil))) (when (fboundp (quote set-active)) (set-active box nil)) box) (let ((box (om-load-boxcall (quote abstraction) "apply-/=v 2" (om-load-patch-abs1 "apply-/=v" (quote ((let ((box (om-load-boxcall (quote abstraction) "mypatch" (om-load-patch-abs1 "mypatch" (quote ((let ((box (om-load-boxout "output 2" 0 (om-make-point 103 407) (quote ((om-load-inputfun (quote input-funbox) "" "out" nil))) nil nil))) (when (fboundp (quote set-active)) (set-active box nil)) box) (let ((box (om-load-boxin "input" 0 (om-make-point 195 10) "" nil nil nil))) (when (fboundp (quote set-active)) (set-active box nil)) box) (let ((box (om-load-boxcall (quote genfun) "OM=" (quote om=) (quote ((om-load-inputfun (quote input-funbox) "a number" "A" 0) (om-load-inputfun (quote input-funbox) "a number" "B" 0))) (om-make-point 71 180) nil nil nil nil 1))) (when (fboundp (quote set-active)) (set-active box nil)) box) (let ((box (om-load-boxcall (quote bastype) "aux" (quote t) (quote nil) (om-make-point 84 124) (om-make-point 27 30) 1 "1" nil))) (when (fboundp (quote set-active)) (set-active box nil)) box) (let ((box (om-load-boxcall (quote lispfun) "LENGTH" (quote length) (quote ((om-load-inputfun (quote input-funbox) "SEQUENCE" "SEQUENCE" nil))) (om-make-point 36 110) nil nil nil nil 1))) (when (fboundp (quote set-active)) (set-active box nil)) box) (let ((box (om-load-boxcall (quote genfun) "OMIF" (quote omif) (quote ((om-load-inputfun (quote input-funbox) "IF" "TEST" nil) (om-load-inputfun (quote input-funbox) "THEN" "ACTION" nil) (om-load-inputfun (quote input-funbox) "ELSE" "ELSE" nil))) (om-make-point 113 262) nil nil nil nil 1))) (when (fboundp (quote set-active)) (set-active box nil)) box) (let ((box (om-load-boxcall (quote bastype) "aux 2" (quote t) (quote nil) (om-make-point 134 182) (om-make-point 24 30) (quote t) "t" nil))) (when (fboundp (quote set-active)) (set-active box nil)) box) (let ((box (om-load-boxcall (quote lispfun) "APPLY" (quote apply) (quote ((om-load-inputfun (quote input-funbox) "FUNCTION" "FUNCTION" nil) (om-load-inputfun (quote input-funbox) "ARG" "ARG" nil))) (om-make-point 180 184) nil nil nil nil 1))) (when (fboundp (quote set-active)) (set-active box nil)) box) (let ((box (om-load-boxcall (quote bastype) "aux 3" (quote t) (quote nil) (om-make-point 148 146) (om-make-point 56 30) (quote screamer:/=v) "s::/=v" nil))) (when (fboundp (quote set-active)) (set-active box nil)) box))) (quote ((5 0 0 0 nil 0) (4 0 2 0 nil 0) (3 0 2 1 nil 0) (1 0 4 0 nil 0) (2 0 5 0 nil 0) (6 0 5 1 nil 0) (7 0 5 2 nil 0) (8 0 7 0 nil 0) (1 0 7 1 nil 0))) 7.04 nil "" (om-make-point 200 200) (om-make-point 500 400)) (quote ((om-load-inputfun (quote input-funbox) "" "input" nil))) (om-make-point 622/7 1024/7) nil nil "l" nil))) (when (fboundp (quote set-active)) (set-active box nil)) box) (let ((box (om-load-boxcall (quote genfun) "APPLY-CONTV" (quote apply-contv) (quote ((om-load-inputfun (quote input-funbox) "patch in lambda mode" "CS" nil) (om-load-inputfunmenu1 (quote input-funmenu) "string" "MODE" "list" (list (list "atom" "atom") (list "list" "list"))) (om-load-inputfunmenu1 (quote input-funmenu) "string" "RECURSIVE?" "growing" (list (list "off" "off") (list "n-inputs" "n-inputs") (list "car-cdr" "car-cdr") (list "growing" "growing"))) (om-load-inputfun (quote input-funbox) "list of variables" "VARS" nil))) (om-make-point 141 251) nil nil nil nil 1))) (when (fboundp (quote set-active)) (set-active box nil)) box) (let ((box (om-load-boxout "output" 0 (om-make-point 158 364) (quote ((om-load-inputfun (quote input-funbox) "" "out" nil))) nil nil))) (when (fboundp (quote set-active)) (set-active box nil)) box) (let ((box (om-load-boxin "input" 0 (om-make-point 149 24) "" nil nil nil))) (when (fboundp (quote set-active)) (set-active box nil)) box))) (quote ((0 0 1 0 nil 0) (3 0 1 3 nil 0) (1 0 2 0 nil 0))) 7.04 nil "" (om-make-point 200 200) (om-make-point 500 400)) (quote ((om-load-inputfun (quote input-funbox) "" "input" nil))) (om-make-point 322 3) nil (list nil) "l" "apply-/=v"))) (when (fboundp (quote set-active)) (set-active box nil)) box) (let ((box (om-load-boxcall (quote genfun) "LIST-OF-CHORDS-INV 2" (quote list-of-chords-inv) (quote ((om-load-inputfun (quote input-funbox) "list" "N-CHORDS" (list 3 3 3 3 3)) (om-load-inputfun (quote input-funbox) "list" "DOMAIN" (list 6000 6200 6400 6500 6700 6900 7100 7200)) (om-load-inputfunmenu1 (quote input-funmenu) "t or nil" "RANDOM?" (quote t) (list (list "nil" nil) (list "t" (quote (quote t))))))) (om-make-point 523 396) nil nil nil nil 1))) (when (fboundp (quote set-active)) (set-active box nil)) box) (let ((box (om-load-boxcall (quote abstraction) "apply-contv-n-inputs" (om-load-patch-abs1 "apply-contv-n-inputs" (quote ((let ((box (om-load-boxcall (quote bastype) "aux 2" (quote t) (quote nil) (om-make-point 242 191) (om-make-point 76 30) "n-inputs" "\"n-inputs\"" nil))) (when (fboundp (quote set-active)) (set-active box nil)) box) (let ((box (om-load-boxcall (quote bastype) "aux" (quote t) (quote nil) (om-make-point 190 194) (om-make-point 46 30) "list" "\"list\"" nil))) (when (fboundp (quote set-active)) (set-active box nil)) box) (let ((box (om-load-boxout "output" 0 (om-make-point 194 373) (quote ((om-load-inputfun (quote input-funbox) "" "out" nil))) nil nil))) (when (fboundp (quote set-active)) (set-active box nil)) box) (let ((box (om-load-boxcall (quote abstraction) "member-harmonic-intervals" (om-load-patch-abs1 "member-harmonic-intervals" (quote ((let ((box (om-load-boxcall (quote genfun) "X->DX-ABSV" (quote x->dx-absv) (quote ((om-load-inputfun (quote input-funbox) "variable or list of variables" "LISTV" (list 1 2 3 4 5)))) (om-make-point 87 100) nil nil nil nil 1))) (when (fboundp (quote set-active)) (set-active box nil)) box) (let ((box (om-load-boxcall (quote genfun) "ALL-MEMBERSV" (quote all-membersv) (quote ((om-load-inputfun (quote input-funbox) "variable or list" "LIST" (list 11 5 2)) (om-load-inputfun (quote input-funbox) "variable or list" "SEQUENCE" (list 0 2 4 5 7 9 11)))) (om-make-point 103 200) nil nil nil nil 1))) (when (fboundp (quote set-active)) (set-active box nil)) box) (let ((box (om-load-boxout "output" 0 (om-make-point 121 290) (quote ((om-load-inputfun (quote input-funbox) "" "out" nil))) nil nil))) (when (fboundp (quote set-active)) (set-active box nil)) box) (let ((box (om-load-boxcall (quote bastype) "aux" (quote t) (quote nil) (om-make-point 167 147) (om-make-point 101 30) (list 300 400 700) "(300 400 700)" nil))) (when (fboundp (quote set-active)) (set-active box nil)) box) (let ((box (om-load-boxin "input" 0 (om-make-point 120 7) "" nil nil nil))) (when (fboundp (quote set-active)) (set-active box nil)) box))) (quote ((4 0 0 0 nil 0) (0 0 1 0 nil 0) (3 0 1 1 nil 0) (1 0 2 0 nil 0))) 7.04 nil "" (om-make-point 200 200) (om-make-point 500 400)) (quote ((om-load-inputfun (quote input-funbox) "" "input" nil))) (om-make-point 22 183) nil nil "l" "member-harmonic-intervals"))) (when (fboundp (quote set-active)) (set-active box nil)) box) (let ((box (om-load-boxcall (quote genfun) "APPLY-CONTV" (quote apply-contv) (quote ((om-load-inputfun (quote input-funbox) "patch in lambda mode" "CS" nil) (om-load-inputfunmenu1 (quote input-funmenu) "string" "MODE" "list" (list (list "atom" "atom") (list "list" "list"))) (om-load-inputfunmenu1 (quote input-funmenu) "string" "RECURSIVE?" "n-inputs" (list (list "off" "off") (list "n-inputs" "n-inputs") (list "car-cdr" "car-cdr") (list "growing" "growing"))) (om-load-inputfun (quote input-funbox) "list of variables" "VARS" nil))) (om-make-point 180 248) nil nil nil nil 1))) (when (fboundp (quote set-active)) (set-active box nil)) box) (let ((box (om-load-boxin "input" 0 (om-make-point 342 164) "" nil nil nil))) (when (fboundp (quote set-active)) (set-active box nil)) box))) (quote ((4 0 2 0 nil 0) (3 0 4 0 nil 0) (1 0 4 1 nil 0) (0 0 4 2 nil 0) (5 0 4 3 nil 0))) 7.04 nil "" (om-make-point 365 86) (om-make-point 496 499)) (quote ((om-load-inputfun (quote input-funbox) "" "input" nil))) (om-make-point 628 407) nil (list nil) "l" "apply-contv-n-inputs"))) (when (fboundp (quote set-active)) (set-active box nil)) box) (let ((box (om-load-boxcall (quote genfun) "ARITHM-SER 2" (quote arithm-ser) (quote ((om-load-inputfun (quote input-funbox) "begin" "BEGIN" 6000) (om-load-inputfun (quote input-funbox) "end " "END" 7200) (om-load-inputfun (quote input-funbox) "step" "STEP" 100))) (om-make-point 544 331) nil nil nil nil 1))) (when (fboundp (quote set-active)) (set-active box nil)) box) (let ((box (om-load-boxcall (quote genfun) "SCREAMER-SOLVER 4" (quote screamer-solver) (quote ((om-load-inputfun (quote input-funbox) "variable or list" "VARIABLES" nil) (om-load-inputkeyword (quote input-keyword) "constraint<lambda-patch> or list" "constraints" (quote :constraints) nil nil))) (om-make-point 563 499) nil nil nil nil 1))) (when (fboundp (quote set-active)) (set-active box nil)) box) (let ((box (om-load-editor-box1 "CHORD-SEQ 2" (quote chord-seq) (quote ((om-load-inputfun (quote input-funbox) "object" "self" nil) (om-load-inputfun (quote input-funbox) "pitches (mc): list or list of lists" "lmidic" (list 6000)) (om-load-inputfun (quote input-funbox) "onsets (ms): list" "lonset" (list 0 1000)) (om-load-inputfun (quote input-funbox) "durations (ms): list or list of lists" "ldur" (list 1000)) (om-load-inputfun (quote input-funbox) "velocities (0-127): list or list of lists" "lvel" (list 100)) (om-load-inputfun (quote input-funbox) "offsets (ms): list or list of lists" "loffset" (list 0)) (om-load-inputfun (quote input-funbox) "MIDI channels (1-16): list or list of lists" "lchan" (list 1)) (om-load-inputfun (quote input-funbox) "relative chords duration (0-100)" "legato" 0))) (om-make-point 484 585) (om-make-point 287 94) (let ((newobj (when (find-class (quote chord-seq) nil) (make-instance (quote chord-seq) :lmidic (quote ((6000 6700 7000) (6000 6300 6600) (6400 6800 7100) (6200 6900 7200) (6500 6900 7200))) :lonset (quote (0 1000 2000 3000 4000 5000)) :ldur (quote ((1000 1000 1000) (1000 1000 1000) (1000 1000 1000) (1000 1000 1000) (1000 1000 1000))) :lvel (quote ((100 100 100) (100 100 100) (100 100 100) (100 100 100) (100 100 100))) :loffset (quote ((0 0 0) (0 0 0) (0 0 0) (0 0 0) (0 0 0))) :lchan (quote ((1 1 1) (1 1 1) (1 1 1) (1 1 1) (1 1 1))) :legato 0)))) (load-port-info newobj (quote ((0 0 0) (0 0 0) (0 0 0) (0 0 0) (0 0 0)))) (init-mus-color newobj (quote nil)) (set-extra-pairs newobj (quote nil)) (set-patch-pairs newobj (quote nil)) (set-name newobj nil) (set-tonalite newobj nil) newobj) nil nil (pairlis (quote (approx fontsize staff cmnpref deltapict outport inport player zoom notechancolor? grillestep mode winsize winpos score-mode obj-mode cursor-mode show-stems scale onset measure)) (list 2 24 (quote g) (let ((newobj (make-instance (quote edition-values)))) (setf (paper-size newobj) (om-make-point 600 800)) (setf (top-margin newobj) 2) (setf (left-margin newobj) 1) (setf (right-margin newobj) 1) (setf (bottom-margin newobj) 1) (setf (orientation newobj) nil) (setf (scale newobj) nil) (setf (system-space newobj) (quote (1))) (setf (system-color newobj) (quote nil)) (setf (line-space newobj) 1) (setf (title newobj) nil) (setf (show-title? newobj) nil) (setf (show-page? newobj) nil) (setf (sheet-id newobj) nil) (setf (page-mode newobj) nil) newobj) (om-make-point 0 0) nil nil (quote :midi-player) 1 nil 1000 0 (om-make-point 623 286) (om-make-point 400 23) 0 1 (quote :normal) (quote t) nil 0 1)) t nil nil nil (quote nil)))) (when (fboundp (quote set-active)) (set-active box nil)) box) (let ((box (om-load-boxcall (quote genfun) "ARITHM-SER" (quote arithm-ser) (quote ((om-load-inputfun (quote input-funbox) "begin" "BEGIN" 6000) (om-load-inputfun (quote input-funbox) "end " "END" 7200) (om-load-inputfun (quote input-funbox) "step" "STEP" 100))) (om-make-point 153 324) nil nil nil nil 1))) (when (fboundp (quote set-active)) (set-active box nil)) box) (let ((box (om-load-boxcall (quote abstraction) "apply-contv-atom" (om-load-patch-abs1 "apply-contv-atom" (quote ((let ((box (om-load-boxout "output" 0 (om-make-point 159 257) (quote ((om-load-inputfun (quote input-funbox) "" "out" nil))) nil nil))) (when (fboundp (quote set-active)) (set-active box nil)) box) (let ((box (om-load-boxcall (quote abstraction) "member-scale" (om-load-patch-abs1 "member-scale" (quote ((let ((box (om-load-boxout "output" 0 (om-make-point 135 288) (quote ((om-load-inputfun (quote input-funbox) "" "out" nil))) nil nil))) (when (fboundp (quote set-active)) (set-active box nil)) box) (let ((box (om-load-boxcall (quote bastype) "aux" (quote t) (quote nil) (om-make-point 167 147) (om-make-point 109 30) (list 0 2 4 6 7 9 11) "(0 2 4 6 7 9 11)" nil))) (when (fboundp (quote set-active)) (set-active box nil)) box) (let ((box (om-load-boxcall (quote genfun) "MC->PCV" (quote mc->pcv) (quote ((om-load-inputfun (quote input-funbox) "variable, number or list" "VAR" 6000))) (om-make-point 77 116) nil nil nil nil 1))) (when (fboundp (quote set-active)) (set-active box nil)) box) (let ((box (om-load-boxcall (quote lispfun) "MEMBERV" (quote screamer:memberv) (quote ((om-load-inputfun (quote input-funbox) "X" "X" nil) (om-load-inputfun (quote input-funbox) "SEQUENCE" "SEQUENCE" nil))) (om-make-point 125 204) nil nil nil nil 1))) (when (fboundp (quote set-active)) (set-active box nil)) box) (let ((box (om-load-boxin "input" 0 (om-make-point 125 25) "" nil nil nil))) (when (fboundp (quote set-active)) (set-active box nil)) box))) (quote ((3 0 0 0 nil 0) (4 0 2 0 nil 0) (2 0 3 0 nil 0) (1 0 3 1 nil 0))) 7.04 nil "" (om-make-point 200 200) (om-make-point 400 500)) (quote ((om-load-inputfun (quote input-funbox) "" "input" nil))) (om-make-point 80 41) nil nil "l" "member-scale"))) (when (fboundp (quote set-active)) (set-active box nil)) box) (let ((box (om-load-boxcall (quote genfun) "APPLY-CONTV" (quote apply-contv) (quote ((om-load-inputfun (quote input-funbox) "patch in lambda mode" "CS" nil) (om-load-inputfunmenu1 (quote input-funmenu) "string" "MODE" "atom" (list (list "atom" "atom") (list "list" "list"))) (om-load-inputfunmenu1 (quote input-funmenu) "string" "RECURSIVE?" "off" (list (list "off" "off") (list "n-inputs" "n-inputs") (list "car-cdr" "car-cdr") (list "growing" "growing"))) (om-load-inputfun (quote input-funbox) "list of variables" "VARS" nil))) (om-make-point 145 132) nil nil nil nil 1))) (when (fboundp (quote set-active)) (set-active box nil)) box) (let ((box (om-load-boxin "input" 0 (om-make-point 180 19) "" nil nil nil))) (when (fboundp (quote set-active)) (set-active box nil)) box))) (quote ((2 0 0 0 nil 0) (1 0 2 0 nil 0) (3 0 2 3 nil 0))) 7.04 nil "" (om-make-point 200 200) (om-make-point 400 500)) (quote ((om-load-inputfun (quote input-funbox) "" "input" nil))) (om-make-point 197 404) nil (list nil) "l" "apply-contv-atom"))) (when (fboundp (quote set-active)) (set-active box nil)) box) (let ((box (om-load-editor-box1 "CHORD-SEQ" (quote chord-seq) (quote ((om-load-inputfun (quote input-funbox) "object" "self" nil) (om-load-inputfun (quote input-funbox) "pitches (mc): list or list of lists" "lmidic" (list 6000)) (om-load-inputfun (quote input-funbox) "onsets (ms): list" "lonset" (list 0 1000)) (om-load-inputfun (quote input-funbox) "durations (ms): list or list of lists" "ldur" (list 1000)) (om-load-inputfun (quote input-funbox) "velocities (0-127): list or list of lists" "lvel" (list 100)) (om-load-inputfun (quote input-funbox) "offsets (ms): list or list of lists" "loffset" (list 0)) (om-load-inputfun (quote input-funbox) "MIDI channels (1-16): list or list of lists" "lchan" (list 1)) (om-load-inputfun (quote input-funbox) "relative chords duration (0-100)" "legato" 0))) (om-make-point 98 586) (om-make-point 271 101) (let ((newobj (when (find-class (quote chord-seq) nil) (make-instance (quote chord-seq) :lmidic (quote ((6700 6900 7100) (6200 6700 6900 7200) (6200 7100 7200) (6400 6700 7100 7200) (6600 6900 7200))) :lonset (quote (0 1000 2000 3000 4000 5000)) :ldur (quote ((1000 1000 1000) (1000 1000 1000 1000) (1000 1000 1000) (1000 1000 1000 1000) (1000 1000 1000))) :lvel (quote ((100 100 100) (100 100 100 100) (100 100 100) (100 100 100 100) (100 100 100))) :loffset (quote ((0 0 0) (0 0 0 0) (0 0 0) (0 0 0 0) (0 0 0))) :lchan (quote ((1 1 1) (1 1 1 1) (1 1 1) (1 1 1 1) (1 1 1))) :legato 0)))) (load-port-info newobj (quote ((0 0 0) (0 0 0 0) (0 0 0) (0 0 0 0) (0 0 0)))) (init-mus-color newobj (quote nil)) (set-extra-pairs newobj (quote nil)) (set-patch-pairs newobj (quote nil)) (set-name newobj nil) (set-tonalite newobj nil) newobj) nil nil (pairlis (quote (approx fontsize staff cmnpref deltapict outport inport player zoom notechancolor? grillestep mode winsize winpos score-mode obj-mode cursor-mode show-stems scale onset measure)) (list 2 24 (quote g) (let ((newobj (make-instance (quote edition-values)))) (setf (paper-size newobj) (om-make-point 600 800)) (setf (top-margin newobj) 2) (setf (left-margin newobj) 1) (setf (right-margin newobj) 1) (setf (bottom-margin newobj) 1) (setf (orientation newobj) nil) (setf (scale newobj) nil) (setf (system-space newobj) (quote (1))) (setf (system-color newobj) (quote nil)) (setf (line-space newobj) 1) (setf (title newobj) nil) (setf (show-title? newobj) nil) (setf (show-page? newobj) nil) (setf (sheet-id newobj) nil) (setf (page-mode newobj) nil) newobj) (om-make-point 0 0) nil nil (quote :midi-player) 1 nil 1000 0 (om-make-point 623 286) (om-make-point 400 23) 0 1 (quote :normal) (quote t) nil 0 1)) t nil nil nil (quote nil)))) (when (fboundp (quote set-active)) (set-active box nil)) box) (let ((box (om-load-boxcall (quote genfun) "LIST-OF-CHORDS-INV" (quote list-of-chords-inv) (quote ((om-load-inputfun (quote input-funbox) "list" "N-CHORDS" (list 3 3 3 3 3 3 3 3 3 3)) (om-load-inputfun (quote input-funbox) "list" "DOMAIN" (list 6000 6200 6400 6500 6700 6900 7100 7200)) (om-load-inputfunmenu1 (quote input-funmenu) "t or nil" "RANDOM?" (quote t) (list (list "nil" nil) (list "t" (quote (quote t))))))) (om-make-point 100 423) nil nil nil nil 1))) (when (fboundp (quote set-active)) (set-active box nil)) box) (let ((box (om-load-boxcall (quote genfun) "SCREAMER-SOLVER 3" (quote screamer-solver) (quote ((om-load-inputfun (quote input-funbox) "variable or list" "VARIABLES" nil) (om-load-inputkeyword (quote input-keyword) "constraint<lambda-patch> or list" "constraints" (quote :constraints) nil nil))) (om-make-point 152 502) nil nil nil nil 1))) (when (fboundp (quote set-active)) (set-active box nil)) box) (let ((box (om-load-boxcall (quote bastype) "aux 5" (quote t) (quote nil) (om-make-point 651 17) (om-make-point 91 30) (list 0 1 2 3 4 5) "(0 1 2 3 4 5)" nil))) (when (fboundp (quote set-active)) (set-active box nil)) box) (let ((box (om-load-boxcall (quote lispfun) "LENGTH 2" (quote length) (quote ((om-load-inputfun (quote input-funbox) "SEQUENCE" "SEQUENCE" nil))) (om-make-point 744 270) nil nil nil nil 1))) (when (fboundp (quote set-active)) (set-active box nil)) box) (let ((box (om-load-boxcall (quote genfun) "LIST-OFVS 4" (quote list-ofvs) (quote ((om-load-inputfun (quote input-funbox) "integer" "N-VARS" 6) (om-load-inputfunmenu1 (quote input-funmenu) "screamer-variable" "VARIABLES" "a-member-ofv" (list (list "an-integer-betweenv" "an-integer-betweenv") (list "a-member-ofv" "a-member-ofv") (list "a-random-member-ofv" "a-random-member-ofv") (list "an-integerv" "an-integerv") (list "an-integer-abovev" "an-integer-abovev") (list "an-integer-belowv" "an-integer-belowv") (list "a-realv" "a-realv") (list "a-real-abovev" "a-real-abovev") (list "a-real-belowv" "a-real-belowv") (list "a-real-betweenv" "a-real-betweenv") (list "a-numberv" "a-numberv") (list "a-booleanv" "a-booleanv"))) (om-load-inputfun (quote input-funbox) "list" "ARGS" (list 0 5)))) (om-make-point 667 73) nil nil nil nil 1))) (when (fboundp (quote set-active)) (set-active box nil)) box) (let ((box (om-load-boxcall (quote abstraction) "apply-contv-car-cdr" (om-load-patch-abs1 "apply-contv-car-cdr" (quote ((let ((box (om-load-boxcall (quote abstraction) "notv-memberv" (om-load-patch-abs1 "notv-memberv" (quote ((let ((box (om-load-boxin "cdr" 1 (om-make-point 299 15) "" "cdr" nil nil))) (when (fboundp (quote set-active)) (set-active box nil)) box) (let ((box (om-load-boxcall (quote lispfun) "MEMBERV" (quote screamer:memberv) (quote ((om-load-inputfun (quote input-funbox) "X" "X" nil) (om-load-inputfun (quote input-funbox) "SEQUENCE" "SEQUENCE" nil))) (om-make-point 193 134) nil nil nil nil 1))) (when (fboundp (quote set-active)) (set-active box nil)) box) (let ((box (om-load-boxcall (quote lispfun) "NOTV" (quote screamer:notv) (quote ((om-load-inputfun (quote input-funbox) "X" "X" nil))) (om-make-point 206 205) nil nil nil nil 1))) (when (fboundp (quote set-active)) (set-active box nil)) box) (let ((box (om-load-boxout "output" 0 (om-make-point 192 289) (quote ((om-load-inputfun (quote input-funbox) "" "out" nil))) nil nil))) (when (fboundp (quote set-active)) (set-active box nil)) box) (let ((box (om-load-boxin "car" 0 (om-make-point 134 0) "" "car" nil nil))) (when (fboundp (quote set-active)) (set-active box nil)) box))) (quote ((4 0 1 0 nil 0) (0 0 1 1 nil 0) (1 0 2 0 nil 0) (2 0 3 0 nil 0))) 7.04 nil "" (om-make-point 200 200) (om-make-point 500 400)) (quote ((om-load-inputfun (quote input-funbox) "" "input" nil) (om-load-inputfun (quote input-funbox) "" "input 2" nil))) (om-make-point 111 78) nil (list nil) "l" "notv-memberv"))) (when (fboundp (quote set-active)) (set-active box nil)) box) (let ((box (om-load-boxout "output" 0 (om-make-point 180 294) (quote ((om-load-inputfun (quote input-funbox) "" "out" nil))) nil nil))) (when (fboundp (quote set-active)) (set-active box nil)) box) (let ((box (om-load-boxcall (quote genfun) "APPLY-CONTV" (quote apply-contv) (quote ((om-load-inputfun (quote input-funbox) "patch in lambda mode" "CS" nil) (om-load-inputfunmenu1 (quote input-funmenu) "string" "MODE" "list" (list (list "atom" "atom") (list "list" "list"))) (om-load-inputfunmenu1 (quote input-funmenu) "string" "RECURSIVE?" "car-cdr" (list (list "off" "off") (list "n-inputs" "n-inputs") (list "car-cdr" "car-cdr") (list "growing" "growing"))) (om-load-inputfun (quote input-funbox) "list of variables" "VARS" nil))) (om-make-point 165 171) nil nil nil nil 1))) (when (fboundp (quote set-active)) (set-active box nil)) box) (let ((box (om-load-boxin "input" 0 (om-make-point 210 43) "" nil nil nil))) (when (fboundp (quote set-active)) (set-active box nil)) box))) (quote ((2 0 1 0 nil 0) (0 0 2 0 nil 0) (3 0 2 3 nil 0))) 7.04 nil "" (om-make-point 200 200) (om-make-point 500 400)) (quote ((om-load-inputfun (quote input-funbox) "" "input" nil))) (om-make-point 861 73) nil (list nil) "l" "apply-contv-car-cdr"))) (when (fboundp (quote set-active)) (set-active box nil)) box) (let ((box (om-load-boxcall (quote abstraction) "intervals-mod12v 2" (om-load-patch-abs1 "intervals-mod12v" (quote ((let ((box (om-load-boxcall (quote genfun) "MOD12V" (quote mod12v) (quote ((om-load-inputfun (quote input-funbox) "variable, number or list" "VAR" -8))) (om-make-point 116 223) nil nil nil nil 1))) (when (fboundp (quote set-active)) (set-active box nil)) box) (let ((box (om-load-boxout "output" 0 (om-make-point 119 342) (quote ((om-load-inputfun (quote input-funbox) "" "out" nil))) nil nil))) (when (fboundp (quote set-active)) (set-active box nil)) box) (let ((box (om-load-boxcall (quote genfun) "X->DXV" (quote x->dxv) (quote ((om-load-inputfun (quote input-funbox) "variable or list of variables" "LISTV" (list 1 2 3 4 5)))) (om-make-point 120 141) nil nil nil nil 1))) (when (fboundp (quote set-active)) (set-active box nil)) box) (let ((box (om-load-boxin "input" 0 (om-make-point 128 30) "" nil nil nil))) (when (fboundp (quote set-active)) (set-active box nil)) box))) (quote ((2 0 0 0 nil 0) (0 0 1 0 nil 0) (3 0 2 0 nil 0))) 7.04 nil "" (om-make-point 353 178) (om-make-point 500 400)) (quote ((om-load-inputfun (quote input-funbox) "" "input" nil))) (om-make-point 744 46) nil (list nil) "l" "intervals-mod12v"))) (when (fboundp (quote set-active)) (set-active box nil)) box) (let ((box (om-load-boxcall (quote genfun) "SCREAMER-SOLVER" (quote screamer-solver) (quote ((om-load-inputfun (quote input-funbox) "variable or list" "VARIABLES" nil) (om-load-inputkeyword (quote input-keyword) "propagation-variables<lambda-patch>" "p-variables" (quote :p-variables) nil nil) (om-load-inputkeyword (quote input-keyword) "constraint<lambda-patch> or list" "constraints" (quote :constraints) nil nil) (om-load-inputkeyword (quote input-keyword) "propagation-constraints<lambda-patch>" "p-constraints" (quote :p-constraints) nil nil) (om-load-inputkeyword (quote input-keyword) "one-value, all-values, listener, n-values, ith-value or best-value" "screamer-valuation" (quote :screamer-valuation) "all-values" (list (list "one-value" "one-value") (list "all-values" "all-values") (list "listener" "listener") (list "n-values" "n-values") (list "ith-value" "ith-value") (list "best-value" "best-value"))) (om-load-inputkeyword (quote input-keyword) "symbol t or nil" "count-failures?" (quote :count-failures?) (quote t) (list (list "off" nil) (list "on" (quote t)))))) (om-make-point 720 189) nil nil nil nil 1))) (when (fboundp (quote set-active)) (set-active box nil)) box) (let ((box (om-load-boxcall (quote genfun) "LIST-OFVS 2" (quote list-ofvs) (quote ((om-load-inputfun (quote input-funbox) "integer" "N-VARS" 6) (om-load-inputfunmenu1 (quote input-funmenu) "screamer-variable" "VARIABLES" "an-integer-betweenv" (list (list "an-integer-betweenv" "an-integer-betweenv") (list "a-member-ofv" "a-member-ofv") (list "a-random-member-ofv" "a-random-member-ofv") (list "an-integerv" "an-integerv") (list "an-integer-abovev" "an-integer-abovev") (list "an-integer-belowv" "an-integer-belowv") (list "a-realv" "a-realv") (list "a-real-abovev" "a-real-abovev") (list "a-real-belowv" "a-real-belowv") (list "a-real-betweenv" "a-real-betweenv") (list "a-numberv" "a-numberv") (list "a-booleanv" "a-booleanv"))) (om-load-inputfun (quote input-funbox) "list" "ARGS" (list 0 5)))) (om-make-point 174 83) nil nil nil nil 1))) (when (fboundp (quote set-active)) (set-active box nil)) box) (let ((box (om-load-boxcall (quote genfun) "SCREAMER-SOLVER 2" (quote screamer-solver) (quote ((om-load-inputfun (quote input-funbox) "variable or list" "VARIABLES" nil) (om-load-inputkeyword (quote input-keyword) "propagation-variables<lambda-patch>" "p-variables" (quote :p-variables) nil nil) (om-load-inputkeyword (quote input-keyword) "constraint<lambda-patch> or list" "constraints" (quote :constraints) nil nil) (om-load-inputkeyword (quote input-keyword) "propagation-constraints<lambda-patch>" "p-constraints" (quote :p-constraints) nil nil) (om-load-inputkeyword (quote input-keyword) "one-value, all-values, listener, n-values, ith-value or best-value" "screamer-valuation" (quote :screamer-valuation) "all-values" (list (list "one-value" "one-value") (list "all-values" "all-values") (list "listener" "listener") (list "n-values" "n-values") (list "ith-value" "ith-value") (list "best-value" "best-value"))) (om-load-inputkeyword (quote input-keyword) "symbol t or nil" "count-failures?" (quote :count-failures?) (quote t) (list (list "off" nil) (list "on" (quote t)))))) (om-make-point 239 175) nil nil nil nil 1))) (when (fboundp (quote set-active)) (set-active box nil)) box) (let ((box (om-load-boxcall (quote lispfun) "LENGTH" (quote length) (quote ((om-load-inputfun (quote input-funbox) "SEQUENCE" "SEQUENCE" nil))) (om-make-point 263 267) nil nil nil nil 1))) (when (fboundp (quote set-active)) (set-active box nil)) box) (let ((box (om-load-boxcall (quote abstraction) "apply-contv-growing" (om-load-patch-abs1 "apply-contv-growing" (quote ((let ((box (om-load-boxcall (quote abstraction) "notv-memberv" (om-load-patch-abs1 "notv-memberv" (quote ((let ((box (om-load-boxcall (quote lispfun) "CDR 2" (quote cdr) (quote ((om-load-inputfun (quote input-funbox) "X" "X" nil))) (om-make-point 315 149) nil nil nil nil 1))) (when (fboundp (quote set-active)) (set-active box nil)) box) (let ((box (om-load-boxcall (quote lispfun) "CAR" (quote car) (quote ((om-load-inputfun (quote input-funbox) "X" "X" nil))) (om-make-point 260 148) nil nil nil nil 1))) (when (fboundp (quote set-active)) (set-active box nil)) box) (let ((box (om-load-boxcall (quote lispfun) "REVERSE" (quote reverse) (quote ((om-load-inputfun (quote input-funbox) "SEQUENCE" "SEQUENCE" nil))) (om-make-point 270 75) nil nil nil nil 1))) (when (fboundp (quote set-active)) (set-active box nil)) box) (let ((box (om-load-boxcall (quote bastype) "aux" (quote t) (quote nil) (om-make-point 170 321) (om-make-point 24 30) (quote t) "t" nil))) (when (fboundp (quote set-active)) (set-active box nil)) box) (let ((box (om-load-boxcall (quote lispfun) "NULL" (quote null) (quote ((om-load-inputfun (quote input-funbox) "X" "X" nil))) (om-make-point 100 249) nil nil nil nil 1))) (when (fboundp (quote set-active)) (set-active box nil)) box) (let ((box (om-load-boxcall (quote genfun) "OMIF" (quote omif) (quote ((om-load-inputfun (quote input-funbox) "IF" "TEST" nil) (om-load-inputfun (quote input-funbox) "THEN" "ACTION" nil) (om-load-inputfun (quote input-funbox) "ELSE" "ELSE" (quote t)))) (om-make-point 44 364) (om-make-point 274 57) nil nil nil 1))) (when (fboundp (quote set-active)) (set-active box nil)) box) (let ((box (om-load-boxcall (quote lispfun) "MEMBERV" (quote screamer:memberv) (quote ((om-load-inputfun (quote input-funbox) "X" "X" nil) (om-load-inputfun (quote input-funbox) "SEQUENCE" "SEQUENCE" nil))) (om-make-point 269 202) nil nil nil nil 1))) (when (fboundp (quote set-active)) (set-active box nil)) box) (let ((box (om-load-boxcall (quote lispfun) "NOTV" (quote screamer:notv) (quote ((om-load-inputfun (quote input-funbox) "X" "X" nil))) (om-make-point 281 257) nil nil nil nil 1))) (when (fboundp (quote set-active)) (set-active box nil)) box) (let ((box (om-load-boxcall (quote lispfun) "CDR" (quote cdr) (quote ((om-load-inputfun (quote input-funbox) "X" "X" nil))) (om-make-point 103 179) nil nil nil nil 1))) (when (fboundp (quote set-active)) (set-active box nil)) box) (let ((box (om-load-boxout "output" 0 (om-make-point 158 463) (quote ((om-load-inputfun (quote input-funbox) "" "out" nil))) nil nil))) (when (fboundp (quote set-active)) (set-active box nil)) box) (let ((box (om-load-boxin "input" 0 (om-make-point 110 4) "" nil nil nil))) (when (fboundp (quote set-active)) (set-active box nil)) box))) (quote ((2 0 0 0 nil 0) (2 0 1 0 nil 0) (10 0 2 0 nil 0) (8 0 4 0 nil 0) (4 0 5 0 nil 0) (3 0 5 1 nil 0) (7 0 5 2 nil 0) (1 0 6 0 nil 0) (0 0 6 1 nil 0) (6 0 7 0 nil 0) (10 0 8 0 nil 0) (5 0 9 0 nil 0))) 7.04 nil "" (om-make-point 572 58) (om-make-point 435 521)) (quote ((om-load-inputfun (quote input-funbox) "" "input" nil))) (om-make-point 84 148) nil (list nil) "l" "notv-memberv"))) (when (fboundp (quote set-active)) (set-active box nil)) box) (let ((box (om-load-boxout "output" 0 (om-make-point 151 364) (quote ((om-load-inputfun (quote input-funbox) "" "out" nil))) nil nil))) (when (fboundp (quote set-active)) (set-active box nil)) box) (let ((box (om-load-boxcall (quote genfun) "APPLY-CONTV" (quote apply-contv) (quote ((om-load-inputfun (quote input-funbox) "patch in lambda mode" "CS" nil) (om-load-inputfunmenu1 (quote input-funmenu) "string" "MODE" "list" (list (list "atom" "atom") (list "list" "list"))) (om-load-inputfunmenu1 (quote input-funmenu) "string" "RECURSIVE?" "growing" (list (list "off" "off") (list "n-inputs" "n-inputs") (list "car-cdr" "car-cdr") (list "growing" "growing"))) (om-load-inputfun (quote input-funbox) "list of variables" "VARS" nil))) (om-make-point 138 241) nil nil nil nil 1))) (when (fboundp (quote set-active)) (set-active box nil)) box) (let ((box (om-load-boxin "input" 0 (om-make-point 183 113) "" nil nil nil))) (when (fboundp (quote set-active)) (set-active box nil)) box))) (quote ((2 0 1 0 nil 0) (0 0 2 0 nil 0) (3 0 2 3 nil 0))) 7.04 nil "" (om-make-point 341 69) (om-make-point 548 510)) (quote ((om-load-inputfun (quote input-funbox) "" "input" nil))) (om-make-point 321 84) nil (list nil) "l" "apply-contv-growing"))) (when (fboundp (quote set-active)) (set-active box nil)) box) (let ((box (om-load-boxcall (quote abstraction) "intervals-mod12v" (om-load-patch-abs1 "intervals-mod12v" (quote ((let ((box (om-load-boxcall (quote genfun) "MOD12V" (quote mod12v) (quote ((om-load-inputfun (quote input-funbox) "variable, number or list" "VAR" -8))) (om-make-point 116 223) nil nil nil nil 1))) (when (fboundp (quote set-active)) (set-active box nil)) box) (let ((box (om-load-boxout "output" 0 (om-make-point 119 342) (quote ((om-load-inputfun (quote input-funbox) "" "out" nil))) nil nil))) (when (fboundp (quote set-active)) (set-active box nil)) box) (let ((box (om-load-boxcall (quote genfun) "X->DXV" (quote x->dxv) (quote ((om-load-inputfun (quote input-funbox) "variable or list of variables" "LISTV" (list 1 2 3 4 5)))) (om-make-point 120 141) nil nil nil nil 1))) (when (fboundp (quote set-active)) (set-active box nil)) box) (let ((box (om-load-boxin "input" 0 (om-make-point 128 30) "" nil nil nil))) (when (fboundp (quote set-active)) (set-active box nil)) box))) (quote ((2 0 0 0 nil 0) (0 0 1 0 nil 0) (3 0 2 0 nil 0))) 7.04 nil "" (om-make-point 200 200) (om-make-point 400 500)) (quote ((om-load-inputfun (quote input-funbox) "" "input" nil))) (om-make-point 228 43) nil (list nil) "l" "intervals-mod12v"))) (when (fboundp (quote set-active)) (set-active box nil)) box))) (quote ((2 0 0 2 nil 0) (0 0 3 0 nil 0) (1 0 3 1 nil 0) (3 0 4 1 nil 0) (9 0 7 1 nil 0) (7 0 10 0 nil 0) (8 0 10 1 nil 0) (10 0 11 1 nil 0) (16 0 14 1 nil 0) (5 0 15 0 nil 0) (12 0 15 1 nil 0) (15 0 16 0 nil 0) (13 0 16 1 nil 0) (22 0 18 0 nil 0) (17 0 19 2 nil 0) (19 0 22 0 nil 0) (21 0 22 1 nil 0) (20 0 22 2 nil 0) (20 0 22 3 nil 0) (23 0 24 0 nil 0) (27 0 24 1 nil 0) (26 0 24 2 nil 0) (26 0 24 3 nil 0) (24 0 25 0 nil 0))) nil 7.04))