; OM File Header - Saved 2024/05/13 11:37:02
; (7.04 :patc (om-make-point 28 36) (om-make-point 51 90) (om-make-point 819 510) "" 183 0 nil "2024/05/13 11:37:02")
; End File Header
; External resources 
; (list (list (quote :abstraction) "#P\"../tools/all-different.omp\""))
(in-package :om)(load-lib-for (quote ("OM-Screamer")))(setf *om-current-persistent* (om-load-patch1 "combinations-permutations" (quote ((let ((box (om-load-boxcall (quote abstraction) "all-differentv" (om-load-patch-abs1 "all-differentv" (quote ((let ((box (om-load-boxout "output" 0 (om-make-point 149 247) (quote ((om-load-inputfun (quote input-funbox) "" "out" nil))) nil nil))) (when (fboundp (quote set-active)) (set-active box nil)) box) (let ((box (om-load-boxcall (quote abstraction) "all-differentv 2" (om-load-patch-abs1 "all-differentv" (quote ((let ((box (om-load-boxcall (quote patch-box) "all-different" (quote ("elements" "OM-Screamer-tutorial-patches" "02-screamer-solver" "tools" "all-different")) (quote ((om-load-inputfun (quote input-funbox) "" "x" nil) (om-load-inputfun (quote input-funbox) "" "xs" nil))) (om-make-point 138 215) nil nil nil nil 1))) (when (fboundp (quote set-active)) (set-active box nil)) box) (let ((box (om-load-boxout "output" 0 (om-make-point 150 342) (quote ((om-load-inputfun (quote input-funbox) "" "out" nil))) nil nil))) (when (fboundp (quote set-active)) (set-active box nil)) box) (let ((box (om-load-boxcall (quote lispfun) "CDR" (quote cdr) (quote ((om-load-inputfun (quote input-funbox) "X" "X" nil))) (om-make-point 216 110) nil nil nil nil 1))) (when (fboundp (quote set-active)) (set-active box nil)) box) (let ((box (om-load-boxcall (quote lispfun) "CAR" (quote car) (quote ((om-load-inputfun (quote input-funbox) "X" "X" nil))) (om-make-point 118 110) nil nil nil nil 1))) (when (fboundp (quote set-active)) (set-active box nil)) box) (let ((box (om-load-boxin "input" 0 (om-make-point 167 0) "" nil nil nil))) (when (fboundp (quote set-active)) (set-active box nil)) box))) (quote ((3 0 0 0 nil 0) (2 0 0 1 nil 0) (0 0 1 0 nil 0) (4 0 2 0 nil 0) (4 0 3 0 nil 0))) 7.04 nil "" (om-make-point 200 200) (om-make-point 370 466)) (quote ((om-load-inputfun (quote input-funbox) "" "input" nil))) (om-make-point 133 118) nil nil nil nil))) (when (fboundp (quote set-active)) (set-active box nil)) box) (let ((box (om-load-boxin "input" 0 (om-make-point 157 9) "" nil nil nil))) (when (fboundp (quote set-active)) (set-active box nil)) box))) (quote ((1 0 0 0 nil 0) (2 0 1 0 nil 0))) 7.04 nil "" (om-make-point 200 200) (om-make-point 363 323)) (quote ((om-load-inputfun (quote input-funbox) "" "input" nil))) (om-make-point 504 123) nil (list nil) "l" "all-differentv"))) (when (fboundp (quote set-active)) (set-active box nil)) box) (let ((box (om-load-boxcall (quote bastype) "aux 8" (quote t) (quote nil) (om-make-point 406 44) (om-make-point 110 30) "a-member-ofv" "\"a-member-ofv\"" nil))) (when (fboundp (quote set-active)) (set-active box nil)) box) (let ((box (om-load-boxcall (quote genfun) "LIST-OFVS 2" (quote list-ofvs) (quote ((om-load-inputfun (quote input-funbox) "integer" "N-VARS" 3) (om-load-inputfunmenu1 (quote input-funmenu) "screamer-variable" "VARIABLES" "a-member-ofv" (list (list "an-integer-betweenv" "an-integer-betweenv") (list "a-member-ofv" "a-member-ofv") (list "a-random-member-ofv" "a-random-member-ofv") (list "an-integerv" "an-integerv") (list "an-integer-abovev" "an-integer-abovev") (list "an-integer-belowv" "an-integer-belowv") (list "a-realv" "a-realv") (list "a-real-abovev" "a-real-abovev") (list "a-real-belowv" "a-real-belowv") (list "a-real-betweenv" "a-real-betweenv") (list "a-numberv" "a-numberv") (list "a-booleanv" "a-booleanv"))) (om-load-inputfun (quote input-funbox) "list" "ARGS" (list 0 10)))) (om-make-point 433 116) nil nil nil nil 1))) (when (fboundp (quote set-active)) (set-active box nil)) box) (let ((box (om-load-boxcall (quote bastype) "aux 7" (quote t) (quote nil) (om-make-point 416 77) (om-make-point 27 30) 6 "6" nil))) (when (fboundp (quote set-active)) (set-active box nil)) box) (let ((box (om-load-boxcall (quote bastype) "aux 3" (quote t) (quote nil) (om-make-point 475 79) (om-make-point 91 30) (list 0 1 2 3 4 5) "(0 1 2 3 4 5)" nil))) (when (fboundp (quote set-active)) (set-active box nil)) box) (let ((box (om-load-boxcall (quote bastype) "aux 6" (quote t) (quote nil) (om-make-point 55 47) (om-make-point 110 30) "a-member-ofv" "\"a-member-ofv\"" nil))) (when (fboundp (quote set-active)) (set-active box nil)) box) (let ((box (om-load-boxcall (quote genfun) "LIST-OFVS" (quote list-ofvs) (quote ((om-load-inputfun (quote input-funbox) "integer" "N-VARS" 3) (om-load-inputfunmenu1 (quote input-funmenu) "screamer-variable" "VARIABLES" "a-member-ofv" (list (list "an-integer-betweenv" "an-integer-betweenv") (list "a-member-ofv" "a-member-ofv") (list "a-random-member-ofv" "a-random-member-ofv") (list "an-integerv" "an-integerv") (list "an-integer-abovev" "an-integer-abovev") (list "an-integer-belowv" "an-integer-belowv") (list "a-realv" "a-realv") (list "a-real-abovev" "a-real-abovev") (list "a-real-belowv" "a-real-belowv") (list "a-real-betweenv" "a-real-betweenv") (list "a-numberv" "a-numberv") (list "a-booleanv" "a-booleanv"))) (om-load-inputfun (quote input-funbox) "list" "ARGS" (list 0 10)))) (om-make-point 82 119) nil nil nil nil 1))) (when (fboundp (quote set-active)) (set-active box nil)) box) (let ((box (om-load-boxcall (quote genfun) "SCREAMER-SOLVER 3" (quote screamer-solver) (quote ((om-load-inputfun (quote input-funbox) "variable or list" "VARIABLES" nil) (om-load-inputkeyword (quote input-keyword) "constraint<lambda-patch> or list" "constraints" (quote :constraints) nil nil) (om-load-inputkeyword (quote input-keyword) "one-value, all-values, listener, n-values, ith-value or best-value" "screamer-valuation" (quote :screamer-valuation) "one-value" (list (list "one-value" "one-value") (list "all-values" "all-values") (list "listener" "listener") (list "n-values" (list (quote list) "n-values" 10)) (list "ith-value" (list (quote list) "ith-value" 10)) (list "best-value" "best-value"))))) (om-make-point 470 213) nil nil nil nil 1))) (when (fboundp (quote set-active)) (set-active box nil)) box) (let ((box (om-load-boxcall (quote genfun) "SCREAMER-SOLVER 2" (quote screamer-solver) (quote ((om-load-inputfun (quote input-funbox) "variable or list" "VARIABLES" nil) (om-load-inputkeyword (quote input-keyword) "one-value, all-values, listener, n-values, ith-value or best-value" "screamer-valuation" (quote :screamer-valuation) "one-value" (list (list "one-value" "one-value") (list "all-values" "all-values") (list "listener" "listener") (list "n-values" (list (quote list) "n-values" 10)) (list "ith-value" (list (quote list) "ith-value" 10)) (list "best-value" "best-value"))))) (om-make-point 122 230) nil nil nil nil 1))) (when (fboundp (quote set-active)) (set-active box nil)) box) (let ((box (om-load-boxcall (quote bastype) "aux 5" (quote t) (quote nil) (om-make-point 596 178) (om-make-point 83 30) "all-values" "\"all-values\"" nil))) (when (fboundp (quote set-active)) (set-active box nil)) box) (let ((box (om-load-boxcomment "comment" (om-make-point 139 30) (quote "ALL PERMUTATIONS") "" (om-make-point 449 428) nil (om-make-color 0 0 0) (om-make-font "Verdana" 12.0D0 :family "Verdana" :style (quote (:plain)) :mode (quote nil))))) (when (fboundp (quote set-active)) (set-active box nil)) box) (let ((box (om-load-boxcomment "comment" (om-make-point 139 30) (quote "ALL COMBINATIONS") "" (om-make-point 102 435) nil (om-make-color 0 0 0) (om-make-font "Verdana" 12.0D0 :family "Verdana" :style (quote (:plain)) :mode (quote nil))))) (when (fboundp (quote set-active)) (set-active box nil)) box) (let ((box (om-load-editor-box1 "TEXT-BOX 2" (quote text-box) (quote ((om-load-inputfun (quote input-funbox) "dialog-item text (string)" "text" "untitled"))) (om-make-point 484 374) (om-make-point 61 40) (om-make-dialog-item (quote text-box) (om-make-point 1 1) (om-make-point 33 20) "720" :font (om-make-font "Verdana" 11.0D0 :family "Verdana" :style (quote (:plain)) :mode (quote nil))) nil nil (pairlis (quote (winsize winpos)) (list (om-make-point 335 275) (om-make-point 10 40))) nil nil nil nil (quote nil)))) (when (fboundp (quote set-active)) (set-active box nil)) box) (let ((box (om-load-editor-box1 "TEXT-BOX" (quote text-box) (quote ((om-load-inputfun (quote input-funbox) "dialog-item text (string)" "text" "untitled"))) (om-make-point 131 375) (om-make-point 73 40) (om-make-dialog-item (quote text-box) (om-make-point 1 1) (om-make-point 45 20) "46656" :font (om-make-font "Verdana" 11.0D0 :family "Verdana" :style (quote (:plain)) :mode (quote nil))) nil nil (pairlis (quote (winsize winpos)) (list (om-make-point 335 275) (om-make-point 10 40))) nil nil nil nil (quote nil)))) (when (fboundp (quote set-active)) (set-active box nil)) box) (let ((box (om-load-boxcall (quote bastype) "aux 2" (quote t) (quote nil) (om-make-point 124 82) (om-make-point 91 30) (list 0 1 2 3 4 5) "(0 1 2 3 4 5)" nil))) (when (fboundp (quote set-active)) (set-active box nil)) box) (let ((box (om-load-boxcall (quote lispfun) "LENGTH 2" (quote length) (quote ((om-load-inputfun (quote input-funbox) "SEQUENCE" "SEQUENCE" nil))) (om-make-point 494 315) nil nil nil nil 1))) (when (fboundp (quote set-active)) (set-active box nil)) box) (let ((box (om-load-boxcall (quote bastype) "aux 4" (quote t) (quote nil) (om-make-point 197 184) (om-make-point 83 30) "all-values" "\"all-values\"" nil))) (when (fboundp (quote set-active)) (set-active box nil)) box) (let ((box (om-load-boxcall (quote lispfun) "LENGTH" (quote length) (quote ((om-load-inputfun (quote input-funbox) "SEQUENCE" "SEQUENCE" nil))) (om-make-point 146 320) nil nil nil nil 1))) (when (fboundp (quote set-active)) (set-active box nil)) box) (let ((box (om-load-boxcall (quote bastype) "aux" (quote t) (quote nil) (om-make-point 65 80) (om-make-point 27 30) 6 "6" nil))) (when (fboundp (quote set-active)) (set-active box nil)) box))) (quote ((3 0 2 0 nil 0) (1 0 2 1 nil 0) (4 0 2 2 nil 0) (18 0 6 0 nil 0) (5 0 6 1 nil 0) (14 0 6 2 nil 0) (2 0 7 0 nil 0) (0 0 7 1 nil 0) (9 0 7 2 nil 0) (6 0 8 0 nil 0) (16 0 8 1 nil 0) (15 0 12 0 nil 0) (17 0 13 0 nil 0) (7 0 15 0 nil 0) (8 0 17 0 nil 0))) nil 7.04))
