; OM File Header - Saved 2025/09/22 07:46:36
; (7.06 :patc (om-make-point 49 111) (om-make-point 50 50) (om-make-point 421 330) "" 183 0 nil "2025/09/19 21:40:22")
; End File Header
(in-package :om)(load-lib-for (quote ("OM-Screamer")))(setf *om-current-persistent* (om-load-patch1 "phythagorean-triplesv" (quote ((let ((box (om-load-boxcall (quote bastype) "aux 2" (quote t) (quote nil) (om-make-point 155 49) (om-make-point 55 30) (list 1 12) "(1 12)" nil))) (when (fboundp (quote set-active)) (set-active box nil)) box) (let ((box (om-load-boxcall (quote bastype) "aux" (quote t) (quote nil) (om-make-point 71 20) (om-make-point 146 30) "an-integer-betweenv" "\"an-integer-betweenv\"" nil))) (when (fboundp (quote set-active)) (set-active box nil)) box) (let ((box (om-load-boxcall (quote genfun) "LIST-OFVS" (quote list-ofvs) (quote ((om-load-inputfun (quote input-funbox) "integer" "N-VARS" 3) (om-load-inputfunmenu1 (quote input-funmenu) "screamer-variable" "VARIABLES" "an-integer-betweenv" (list (list "an-integer-betweenv" "an-integer-betweenv") (list "a-member-ofv" "a-member-ofv") (list "a-random-member-ofv" "a-random-member-ofv") (list "an-integerv" "an-integerv") (list "an-integer-abovev" "an-integer-abovev") (list "an-integer-belowv" "an-integer-belowv") (list "a-realv" "a-realv") (list "a-real-abovev" "a-real-abovev") (list "a-real-belowv" "a-real-belowv") (list "a-real-betweenv" "a-real-betweenv") (list "a-numberv" "a-numberv") (list "a-booleanv" "a-booleanv"))) (om-load-inputfun (quote input-funbox) "list" "ARGS" (list 1 12)))) (om-make-point 116 84) nil nil nil nil 1))) (when (fboundp (quote set-active)) (set-active box nil)) box) (let ((box (om-load-boxcall (quote genfun) "SCREAMER-SOLVER" (quote screamer-solver) (quote ((om-load-inputfun (quote input-funbox) "variable or list" "VARIABLES" nil) (om-load-inputkeyword (quote input-keyword) "constraint<lambda-patch> or list" "constraints" (quote :constraints) nil nil) (om-load-inputkeyword (quote input-keyword) "one-value, all-values, listener, n-values, ith-value or best-value" "screamer-valuation" (quote :screamer-valuation) "all-values" (list (list "one-value" "one-value") (list "all-values" "all-values") (list "listener" "listener") (list "n-values" (list (quote list) "n-values" 10)) (list "ith-value" (list (quote list) "ith-value" 10)) (list "best-value" "best-value"))))) (om-make-point 195 220) nil nil nil nil 1))) (when (fboundp (quote set-active)) (set-active box nil)) box) (let ((box (om-load-boxcall (quote abstraction) "phythagorean-triplesv" (om-load-patch-abs1 "phythagorean-triplesv" (quote ((let ((box (om-load-boxcall (quote lispfun) "+V" (quote screamer:+v) (quote ((om-load-inputfun (quote input-funbox) "add-input" "add-input" nil) (om-load-inputfun (quote input-funbox) "add-input" "add-input" nil))) (om-make-point 141 233) nil nil nil nil 1))) (when (fboundp (quote set-active)) (set-active box nil)) box) (let ((box (om-load-boxcall (quote lispfun) "*V 3" (quote screamer:*v) (quote ((om-load-inputfun (quote input-funbox) "add-input" "add-input" nil) (om-load-inputfun (quote input-funbox) "add-input" "add-input" nil))) (om-make-point 263 162) nil nil nil nil 1))) (when (fboundp (quote set-active)) (set-active box nil)) box) (let ((box (om-load-boxcall (quote lispfun) "THIRD" (quote third) (quote ((om-load-inputfun (quote input-funbox) "LIST" "LIST" nil))) (om-make-point 261 102) nil nil nil nil 1))) (when (fboundp (quote set-active)) (set-active box nil)) box) (let ((box (om-load-boxcall (quote lispfun) "*V 2" (quote screamer:*v) (quote ((om-load-inputfun (quote input-funbox) "add-input" "add-input" nil) (om-load-inputfun (quote input-funbox) "add-input" "add-input" nil))) (om-make-point 179 169) nil nil nil nil 1))) (when (fboundp (quote set-active)) (set-active box nil)) box) (let ((box (om-load-boxcall (quote lispfun) "SECOND" (quote second) (quote ((om-load-inputfun (quote input-funbox) "LIST" "LIST" nil))) (om-make-point 171 101) nil nil nil nil 1))) (when (fboundp (quote set-active)) (set-active box nil)) box) (let ((box (om-load-boxcall (quote lispfun) "*V" (quote screamer:*v) (quote ((om-load-inputfun (quote input-funbox) "add-input" "add-input" nil) (om-load-inputfun (quote input-funbox) "add-input" "add-input" nil))) (om-make-point 89 171) nil nil nil nil 1))) (when (fboundp (quote set-active)) (set-active box nil)) box) (let ((box (om-load-boxcall (quote lispfun) "FIRST" (quote first) (quote ((om-load-inputfun (quote input-funbox) "LIST" "LIST" nil))) (om-make-point 89 100) nil nil nil nil 1))) (when (fboundp (quote set-active)) (set-active box nil)) box) (let ((box (om-load-boxcall (quote lispfun) "=V" (quote screamer:=v) (quote ((om-load-inputfun (quote input-funbox) "X" "X" nil) (om-load-inputfun (quote input-funbox) "add-input" "add-input" nil))) (om-make-point 195 303) nil nil nil nil 1))) (when (fboundp (quote set-active)) (set-active box nil)) box) (let ((box (om-load-boxout "output" 0 (om-make-point 182 426) (quote ((om-load-inputfun (quote input-funbox) "" "out" nil))) nil nil))) (when (fboundp (quote set-active)) (set-active box nil)) box) (let ((box (om-load-boxin "input" 0 (om-make-point 178 8) "" nil nil nil))) (when (fboundp (quote set-active)) (set-active box nil)) box) (let ((box (om-load-boxcall (quote lispfun) "ASSERT!" (quote screamer:assert!) (quote ((om-load-inputfun (quote input-funbox) "X" "X" nil))) (om-make-point 183 367) nil nil nil nil 1))) (when (fboundp (quote set-active)) (set-active box nil)) box))) (quote ((5 0 0 0 nil 0) (3 0 0 1 nil 0) (2 0 1 0 nil 0) (2 0 1 1 nil 0) (9 0 2 0 nil 0) (4 0 3 0 nil 0) (4 0 3 1 nil 0) (9 0 4 0 nil 0) (6 0 5 0 nil 0) (6 0 5 1 nil 0) (9 0 6 0 nil 0) (0 0 7 0 nil 0) (1 0 7 1 nil 0) (10 0 8 0 nil 0) (7 0 10 0 nil 0))) 7.06 nil "" (om-make-point 659 63) (om-make-point 471 516)) (quote ((om-load-inputfun (quote input-funbox) "" "input" nil))) (om-make-point 237 122) nil (list nil) "l" "phythagorean-triplesv"))) (when (fboundp (quote set-active)) (set-active box nil)) box) (let ((box (om-load-boxcall (quote bastype) "aux 11" (quote t) (quote nil) (om-make-point 98 49) (om-make-point 27 30) 3 "3" nil))) (when (fboundp (quote set-active)) (set-active box nil)) box))) (quote ((5 0 2 0 nil 0) (1 0 2 1 nil 0) (0 0 2 2 nil 0) (2 0 3 0 nil 0) (4 0 3 1 nil 0))) nil 7.06))
