; OM File Header - Saved 2024/06/04 14:45:34
; (7.04 :patc (om-make-point 78 513) (om-make-point 50 50) (om-make-point 1118 625) "" 183 0 nil "2024/06/04 14:45:34")
; End File Header
(in-package :om)(load-lib-for (quote ("OM-Screamer")))(setf *om-current-persistent* (om-load-patch1 "set-class" (quote ((let ((box (om-load-boxcall (quote abstraction) "all-ascending" (om-load-patch-abs1 "all-ascending" (quote ((let ((box (om-load-boxout "output" 0 (om-make-point 181 331) (quote ((om-load-inputfun (quote input-funbox) "" "out" nil))) nil nil))) (when (fboundp (quote set-active)) (set-active box nil)) box) (let ((box (om-load-boxcall (quote abstraction) "all-ascending" (om-load-patch-abs1 "all-ascending" (quote ((let ((box (om-load-boxout "output" 0 (om-make-point 115 243) (quote ((om-load-inputfun (quote input-funbox) "" "out" nil))) nil nil))) (when (fboundp (quote set-active)) (set-active box nil)) box) (let ((box (om-load-boxin "input" 0 (om-make-point 138 17) "" nil nil nil))) (when (fboundp (quote set-active)) (set-active box nil)) box) (let ((box (om-load-boxcall (quote bastype) "aux" (quote t) (quote nil) (om-make-point 81 112) (om-make-point 51 30) (quote screamer:<v) "s::<v" nil))) (when (fboundp (quote set-active)) (set-active box nil)) box) (let ((box (om-load-boxcall (quote lispfun) "APPLY" (quote apply) (quote ((om-load-inputfun (quote input-funbox) "FUNCTION" "FUNCTION" nil) (om-load-inputfun (quote input-funbox) "ARG" "ARG" nil))) (om-make-point 121 161) nil nil nil nil 1))) (when (fboundp (quote set-active)) (set-active box nil)) box))) (quote ((3 0 0 0 nil 0) (2 0 3 0 nil 0) (1 0 3 1 nil 0))) 7.04 nil "" (om-make-point 200 200) (om-make-point 400 500)) (quote ((om-load-inputfun (quote input-funbox) "" "input" nil))) (om-make-point 72 128) nil nil "l" "all-ascending"))) (when (fboundp (quote set-active)) (set-active box nil)) box) (let ((box (om-load-boxcall (quote genfun) "APPLY-CONTV" (quote apply-contv) (quote ((om-load-inputfun (quote input-funbox) "patch in lambda mode" "CS" nil) (om-load-inputfunmenu1 (quote input-funmenu) "string" "MODE" "list" (list (list "atom" "atom") (list "list" "list"))) (om-load-inputfunmenu1 (quote input-funmenu) "string" "RECURSIVE?" "n-inputs" (list (list "off" "off") (list "n-inputs" "n-inputs") (list "car-cdr" "car-cdr") (list "growing" "growing"))) (om-load-inputfun (quote input-funbox) "list of variables" "VARS" nil))) (om-make-point 166 212) nil nil nil nil 1))) (when (fboundp (quote set-active)) (set-active box nil)) box) (let ((box (om-load-boxin "input" 0 (om-make-point 239 78) "" nil nil nil))) (when (fboundp (quote set-active)) (set-active box nil)) box))) (quote ((2 0 0 0 nil 0) (1 0 2 0 nil 0) (3 0 2 3 nil 0))) 7.04 nil "" (om-make-point 200 200) (om-make-point 400 500)) (quote ((om-load-inputfun (quote input-funbox) "" "input" nil))) (om-make-point 496 122) nil (list nil) "l" "all-ascending"))) (when (fboundp (quote set-active)) (set-active box nil)) box) (let ((box (om-load-boxcall (quote genfun) "M->MIDIC 2" (quote m->midic) (quote ((om-load-inputfun (quote input-funbox) "variable, number or list" "N" 60))) (om-make-point 382 398) nil nil nil nil 1))) (when (fboundp (quote set-active)) (set-active box nil)) box) (let ((box (om-load-boxcall (quote genfun) "M->MIDIC" (quote m->midic) (quote ((om-load-inputfun (quote input-funbox) "variable, number or list" "N" 60))) (om-make-point 181 19) nil nil nil nil 1))) (when (fboundp (quote set-active)) (set-active box nil)) box) (let ((box (om-load-boxcall (quote bastype) "aux 8" (quote t) (quote nil) (om-make-point 901 175) (om-make-point 93 30) "linear-force" "\"linear-force\"" nil))) (when (fboundp (quote set-active)) (set-active box nil)) box) (let ((box (om-load-boxcall (quote bastype) "aux 7" (quote t) (quote nil) (om-make-point 856 166) (om-make-point 39 30) "<" "\"<\"" nil))) (when (fboundp (quote set-active)) (set-active box nil)) box) (let ((box (om-load-boxcall (quote bastype) "aux 6" (quote t) (quote nil) (om-make-point 773 142) (om-make-point 139 30) "(declare (ignore x))" "\"(declare (ignore x))\"" nil))) (when (fboundp (quote set-active)) (set-active box nil)) box) (let ((box (om-load-boxcall (quote bastype) "aux 5" (quote t) (quote nil) (om-make-point 716 118) (om-make-point 97 30) "domain-size" "\"domain-size\"" nil))) (when (fboundp (quote set-active)) (set-active box nil)) box) (let ((box (om-load-boxcall (quote bastype) "aux 4" (quote t) (quote nil) (om-make-point 685 166) (om-make-point 71 30) "reorder" "\"reorder\"" nil))) (when (fboundp (quote set-active)) (set-active box nil)) box) (let ((box (om-load-boxcall (quote bastype) "aux" (quote t) (quote nil) (om-make-point 378 100) (om-make-point 99 30) (list (quote |3-11A|) (quote |3-11B|)) "(3-11a 3-11b)" nil))) (when (fboundp (quote set-active)) (set-active box nil)) box) (let ((box (om-load-boxcall (quote bastype) "aux 3" (quote t) (quote nil) (om-make-point 74 90) (om-make-point 27 30) 3 "3" nil))) (when (fboundp (quote set-active)) (set-active box nil)) box) (let ((box (om-load-boxcall (quote bastype) "aux 2" (quote t) (quote nil) (om-make-point 31 90) (om-make-point 34 30) 10 "10" nil))) (when (fboundp (quote set-active)) (set-active box nil)) box) (let ((box (om-load-editor-box1 "CHORD-SEQ 2" (quote chord-seq) (quote ((om-load-inputfun (quote input-funbox) "object" "self" nil) (om-load-inputfun (quote input-funbox) "pitches (mc): list or list of lists" "lmidic" (list 6000)) (om-load-inputfun (quote input-funbox) "onsets (ms): list" "lonset" (list 0 67.5)) (om-load-inputfun (quote input-funbox) "durations (ms): list or list of lists" "ldur" (list 1000)) (om-load-inputfun (quote input-funbox) "velocities (0-127): list or list of lists" "lvel" (list 100)) (om-load-inputfun (quote input-funbox) "offsets (ms): list or list of lists" "loffset" (list 0)) (om-load-inputfun (quote input-funbox) "MIDI channels (1-16): list or list of lists" "lchan" (list 1)) (om-load-inputfun (quote input-funbox) "relative chords duration (0-100)" "legato" 0))) (om-make-point 170 82) (om-make-point 177 118) (let ((newobj (when (find-class (quote chord-seq) nil) (make-instance (quote chord-seq) :lmidic (quote ((3600) (3700) (3800) (3900) (4000) (4100) (4200) (4300) (4400) (4500) (4600) (4700) (4800) (4900) (5000) (5100) (5200) (5300) (5400) (5500) (5600) (5700) (5800) (5900) (6000) (6100) (6200) (6300) (6400) (6500) (6600) (6700) (6800) (6900) (7000) (7100) (7200))) :lonset (quote (0 68 135 202 270 338 405 472 540 608 675 742 810 878 945 1012 1080 1148 1215 1282 1350 1418 1485 1552 1620 1688 1755 1822 1890 1958 2025 2092 2160 2228 2295 2362 2430 3430)) :ldur (quote ((1000) (1000) (1000) (1000) (1000) (1000) (1000) (1000) (1000) (1000) (1000) (1000) (1000) (1000) (1000) (1000) (1000) (1000) (1000) (1000) (1000) (1000) (1000) (1000) (1000) (1000) (1000) (1000) (1000) (1000) (1000) (1000) (1000) (1000) (1000) (1000) (1000))) :lvel (quote ((100) (100) (100) (100) (100) (100) (100) (100) (100) (100) (100) (100) (100) (100) (100) (100) (100) (100) (100) (100) (100) (100) (100) (100) (100) (100) (100) (100) (100) (100) (100) (100) (100) (100) (100) (100) (100))) :loffset (quote ((0) (0) (0) (0) (0) (0) (0) (0) (0) (0) (0) (0) (0) (0) (0) (0) (0) (0) (0) (0) (0) (0) (0) (0) (0) (0) (0) (0) (0) (0) (0) (0) (0) (0) (0) (0) (0))) :lchan (quote ((1) (1) (1) (1) (1) (1) (1) (1) (1) (1) (1) (1) (1) (1) (1) (1) (1) (1) (1) (1) (1) (1) (1) (1) (1) (1) (1) (1) (1) (1) (1) (1) (1) (1) (1) (1) (1))) :legato 0)))) (load-port-info newobj (quote ((0) (0) (0) (0) (0) (0) (0) (0) (0) (0) (0) (0) (0) (0) (0) (0) (0) (0) (0) (0) (0) (0) (0) (0) (0) (0) (0) (0) (0) (0) (0) (0) (0) (0) (0) (0) (0)))) (init-mus-color newobj (quote nil)) (set-extra-pairs newobj (quote nil)) (set-patch-pairs newobj (quote nil)) (set-name newobj nil) (set-tonalite newobj nil) newobj) nil nil (pairlis (quote (measure onset approx fontsize staff cmnpref deltapict outport inport player zoom notechancolor? grillestep mode winsize winpos score-mode obj-mode cursor-mode show-stems scale)) (list nil nil 8 24 (quote gf) (let ((newobj (make-instance (quote edition-values)))) (setf (paper-size newobj) (om-make-point 600 800)) (setf (top-margin newobj) 2) (setf (left-margin newobj) 1) (setf (right-margin newobj) 1) (setf (bottom-margin newobj) 1) (setf (orientation newobj) nil) (setf (scale newobj) nil) (setf (system-space newobj) (quote (1))) (setf (system-color newobj) (quote nil)) (setf (line-space newobj) 1) (setf (title newobj) nil) (setf (show-title? newobj) nil) (setf (show-page? newobj) nil) (setf (sheet-id newobj) nil) (setf (page-mode newobj) nil) newobj) (om-make-point 0 0) nil nil (quote :fluidsynth) 1 nil 1000 0 (om-make-point 370 280) (om-make-point 400 20) 0 1 (quote :normal) (quote t) nil)) t nil nil nil (quote nil)))) (when (fboundp (quote set-active)) (set-active box nil)) box) (let ((box (om-load-boxcall (quote lispfun) "LIST" (quote list) (quote ((om-load-inputfun (quote input-funbox) "add-input" "add-input" nil) (om-load-inputfun (quote input-funbox) "add-input" "add-input" nil) (om-load-inputfun (quote input-funbox) "add-input" "add-input" nil))) (om-make-point 488 224) nil nil nil nil 1))) (when (fboundp (quote set-active)) (set-active box nil)) box) (let ((box (om-load-boxcall (quote abstraction) "growing-bass 2" (om-load-patch-abs1 "growing-bass" (quote ((let ((box (om-load-boxcall (quote lispfun) "ASSERT!" (quote screamer:assert!) (quote ((om-load-inputfun (quote input-funbox) "X" "X" nil))) (om-make-point 111 256) nil nil nil nil 1))) (when (fboundp (quote set-active)) (set-active box nil)) box) (let ((box (om-load-boxcall (quote bastype) "aux" (quote t) (quote nil) (om-make-point 59 142) (om-make-point 51 30) (quote screamer:<v) "s::<v" nil))) (when (fboundp (quote set-active)) (set-active box nil)) box) (let ((box (om-load-boxcall (quote lispfun) "APPLY" (quote apply) (quote ((om-load-inputfun (quote input-funbox) "FUNCTION" "FUNCTION" nil) (om-load-inputfun (quote input-funbox) "ARG" "ARG" nil))) (om-make-point 117 189) nil nil nil nil 1))) (when (fboundp (quote set-active)) (set-active box nil)) box) (let ((box (om-load-boxcall (quote lispfun) "FIRST" (quote first) (quote ((om-load-inputfun (quote input-funbox) "LIST" "LIST" nil))) (om-make-point 97 64) nil nil "l" nil 1))) (when (fboundp (quote set-active)) (set-active box nil)) box) (let ((box (om-load-boxcall (quote lispfun) "MAPCAR" (quote mapcar) (quote ((om-load-inputfun (quote input-funbox) "FUNCTION" "FUNCTION" nil) (om-load-inputfun (quote input-funbox) "LIST" "LIST" nil))) (om-make-point 121 121) nil nil nil nil 1))) (when (fboundp (quote set-active)) (set-active box nil)) box) (let ((box (om-load-boxout "output" 0 (om-make-point 110 316) (quote ((om-load-inputfun (quote input-funbox) "" "out" nil))) nil nil))) (when (fboundp (quote set-active)) (set-active box nil)) box) (let ((box (om-load-boxin "input" 0 (om-make-point 137 6) "" nil nil nil))) (when (fboundp (quote set-active)) (set-active box nil)) box))) (quote ((2 0 0 0 nil 0) (1 0 2 0 nil 0) (4 0 2 1 nil 0) (3 0 4 0 nil 0) (6 0 4 1 nil 0) (0 0 5 0 nil 0))) 7.04 nil "" (om-make-point 200 200) (om-make-point 318 425)) (quote ((om-load-inputfun (quote input-funbox) "" "input" nil))) (om-make-point 1195/2 129) nil (list nil) "l" "growing-bass"))) (when (fboundp (quote set-active)) (set-active box nil)) box) (let ((box (om-load-boxcall (quote genfun) "FORCE-FUNCTION" (quote force-function) (quote ((om-load-inputfunmenu1 (quote input-funmenu) "ordering-force-functions" "FORCE-FUNCTION" "reorder" (list (list "static-ordering linear-force" "static-ordering linear-force") (list "static-ordering divide-and-conquer-force" "static-ordering divide-and-conquer-force") (list "reorder" "reorder"))) (om-load-inputkeyword (quote input-keyword) "domain-size or range-size" "COST-FUNCTION" (quote :cost-function) "domain-size" nil) (om-load-inputkeyword (quote input-keyword) "terminate-function" "TERMINATE?" (quote :terminate?) "(declare (ignore x))" nil) (om-load-inputkeyword (quote input-keyword) "> or <" "ORDER" (quote :order) "<" nil) (om-load-inputkeyword (quote input-keyword) "linear-force or divide-and-conquer-force" "REORDER-FORCE-FUNCTION" (quote :reorder-force-function) "linear-force" nil))) (om-make-point 734 209) nil nil nil nil 1))) (when (fboundp (quote set-active)) (set-active box nil)) box) (let ((box (om-load-boxcall (quote genfun) "CREATE-LIST" (quote create-list) (quote ((om-load-inputfun (quote input-funbox) "number of elements" "COUNT" 10) (om-load-inputfun (quote input-funbox) "initial element" "ELEM" 3))) (om-make-point 34 124) nil nil nil nil 1))) (when (fboundp (quote set-active)) (set-active box nil)) box) (let ((box (om-load-boxcall (quote genfun) "LIST-OF-CHORDS-INV" (quote list-of-chords-inv) (quote ((om-load-inputfun (quote input-funbox) "list" "N-CHORDS" (list 3)) (om-load-inputfun (quote input-funbox) "list" "DOMAIN" (list 6000 6200 6400 6500 6700 6900 7100 7200)) (om-load-inputfunmenu1 (quote input-funmenu) "t or nil" "RANDOM?" (quote t) (list (list "nil" nil) (list "t" (quote (quote t))))))) (om-make-point 58 206) nil nil nil nil 1))) (when (fboundp (quote set-active)) (set-active box nil)) box) (let ((box (om-load-boxcall (quote genfun) "ARITHM-SER" (quote arithm-ser) (quote ((om-load-inputfun (quote input-funbox) "begin" "BEGIN" 36) (om-load-inputfun (quote input-funbox) "end " "END" 72) (om-load-inputfun (quote input-funbox) "step" "STEP" 1))) (om-make-point 79 6) nil nil nil nil 1))) (when (fboundp (quote set-active)) (set-active box nil)) box) (let ((box (om-load-boxcall (quote abstraction) "member-of-scs" (om-load-patch-abs1 "member-of-scs" (quote ((let ((box (om-load-boxcall (quote genfun) "APPLY-CONTV" (quote apply-contv) (quote ((om-load-inputfun (quote input-funbox) "patch in lambda mode" "CS" nil) (om-load-inputfunmenu1 (quote input-funmenu) "string" "MODE" "list" (list (list "atom" "atom") (list "list" "list"))) (om-load-inputfunmenu1 (quote input-funmenu) "string" "RECURSIVE?" "n-inputs" (list (list "off" "off") (list "n-inputs" "n-inputs") (list "car-cdr" "car-cdr"))) (om-load-inputfun (quote input-funbox) "list of variables" "VARS" nil))) (om-make-point 221 214) nil nil nil nil 1))) (when (fboundp (quote set-active)) (set-active box nil)) box) (let ((box (om-load-boxin "sc-list" 1 (om-make-point 193 38) "" "sc-list" nil nil))) (when (fboundp (quote set-active)) (set-active box nil)) box) (let ((box (om-load-boxcall (quote abstraction) "member-of-sc-list" (om-load-patch-abs1 "member-of-sc-list" (quote ((let ((box (om-load-boxcall (quote bastype) "aux" (quote t) (quote nil) (om-make-point 180 83) (om-make-point 54 30) "midi" "\"midi\"" nil))) (when (fboundp (quote set-active)) (set-active box nil)) box) (let ((box (om-load-boxcall (quote genfun) "MEMBER-OF-SCV? 2" (quote om-screamer::member-of-scv?) (quote ((om-load-inputfun (quote input-funbox) "list of screamer variables" "VARS" (list nil)) (om-load-inputfun (quote input-funbox) "list of set-classes<fn>" "SC-LIST" (list (quote |3-11A|) (quote |3-11B|))) (om-load-inputfunmenu1 (quote input-funmenu) "pc or midi" "MODE" "midi" (list (list "midi" "midi") (list "pc" "pc"))))) (om-make-point 112 113) nil nil nil nil 1))) (when (fboundp (quote set-active)) (set-active box nil)) box) (let ((box (om-load-boxin "sc-list" 1 (om-make-point 142 16) "" "sc-list" nil nil))) (when (fboundp (quote set-active)) (set-active box nil)) box) (let ((box (om-load-boxout "output" 0 (om-make-point 137 224) (quote ((om-load-inputfun (quote input-funbox) "" "out" nil))) nil nil))) (when (fboundp (quote set-active)) (set-active box nil)) box) (let ((box (om-load-boxin "vars" 0 (om-make-point 83 21) "" "vars" nil (om-make-point 48 59)))) (when (fboundp (quote set-active)) (set-active box nil)) box))) (quote ((4 0 1 0 nil 0) (2 0 1 1 nil 0) (0 0 1 2 nil 0) (1 0 3 0 nil 0))) 7.04 nil "" (om-make-point 199 200) (om-make-point 383 354)) (quote ((om-load-inputfun (quote input-funbox) "" "list" nil) (om-load-inputfun (quote input-funbox) "" "input" nil))) (om-make-point 419/3 117) nil (list nil) "l" "member-of-sc-list"))) (when (fboundp (quote set-active)) (set-active box nil)) box) (let ((box (om-load-boxout "output" 0 (om-make-point 232 323) (quote ((om-load-inputfun (quote input-funbox) "" "out" nil))) nil nil))) (when (fboundp (quote set-active)) (set-active box nil)) box) (let ((box (om-load-boxin "list-of-lists-of-variables" 0 (om-make-point 289 115) "" "list-of-lists-of-variables" nil nil))) (when (fboundp (quote set-active)) (set-active box nil)) box))) (quote ((2 0 0 0 nil 0) (4 0 0 3 nil 0) (1 0 2 1 nil 0) (0 0 3 0 nil 0))) 7.04 nil "" (om-make-point 280 205) (om-make-point 500 400)) (quote ((om-load-inputfun (quote input-funbox) "" "list-of-lists-of-variables" nil) (om-load-inputfun (quote input-funbox) "" "input" nil))) (om-make-point 1451/4 2783/20) (om-make-point 87 67) (list nil) "l" "member-of-scs"))) (when (fboundp (quote set-active)) (set-active box nil)) box) (let ((box (om-load-boxcall (quote genfun) "SCREAMER-SOLVER" (quote screamer-solver) (quote ((om-load-inputfun (quote input-funbox) "variable or list" "VARIABLES" nil) (om-load-inputkeyword (quote input-keyword) "constraint<lambda-patch> or list" "constraints" (quote :constraints) nil nil) (om-load-inputkeyword (quote input-keyword) "one-value, all-values, listener, n-values, ith-value or best-value" "screamer-valuation" (quote :screamer-valuation) "one-value" (list (list "one-value" "one-value") (list "all-values" "all-values") (list "listener" "listener") (list "n-values" (list (quote list) "n-values" 10)) (list "ith-value" (list (quote list) "ith-value" 10)) (list "best-value" "best-value"))) (om-load-inputkeyword (quote input-keyword) "ordering-force-functions" "force-function" (quote :force-function) "static-ordering linear-force" nil))) (om-make-point 367 303) nil nil nil nil 1))) (when (fboundp (quote set-active)) (set-active box nil)) box) (let ((box (om-load-editor-box1 "CHORD-SEQ" (quote chord-seq) (quote ((om-load-inputfun (quote input-funbox) "object" "self" nil) (om-load-inputfun (quote input-funbox) "pitches (mc): list or list of lists" "lmidic" (list 6000)) (om-load-inputfun (quote input-funbox) "onsets (ms): list" "lonset" (list 0 1000)) (om-load-inputfun (quote input-funbox) "durations (ms): list or list of lists" "ldur" (list 1000)) (om-load-inputfun (quote input-funbox) "velocities (0-127): list or list of lists" "lvel" (list 100)) (om-load-inputfun (quote input-funbox) "offsets (ms): list or list of lists" "loffset" (list 0)) (om-load-inputfun (quote input-funbox) "MIDI channels (1-16): list or list of lists" "lchan" (list 1)) (om-load-inputfun (quote input-funbox) "relative chords duration (0-100)" "legato" 0))) (om-make-point 178 459) (om-make-point 515 123) (let ((newobj (when (find-class (quote chord-seq) nil) (make-instance (quote chord-seq) :lmidic (quote ((5000 5700 6500) (5700 6100 6400) (5800 6300 6600) (5900 6400 6800) (6000 6400 6900) (6100 6400 6800) (6200 6700 7100) (6300 6800 7100) (6400 6700 7200) (6500 6900 7200))) :lonset (quote (0 1000 2000 3000 4000 5000 6000 7000 8000 9000 10000)) :ldur (quote ((1000 1000 1000) (1000 1000 1000) (1000 1000 1000) (1000 1000 1000) (1000 1000 1000) (1000 1000 1000) (1000 1000 1000) (1000 1000 1000) (1000 1000 1000) (1000 1000 1000))) :lvel (quote ((100 100 100) (100 100 100) (100 100 100) (100 100 100) (100 100 100) (100 100 100) (100 100 100) (100 100 100) (100 100 100) (100 100 100))) :loffset (quote ((0 0 0) (0 0 0) (0 0 0) (0 0 0) (0 0 0) (0 0 0) (0 0 0) (0 0 0) (0 0 0) (0 0 0))) :lchan (quote ((1 1 1) (1 1 1) (1 1 1) (1 1 1) (1 1 1) (1 1 1) (1 1 1) (1 1 1) (1 1 1) (1 1 1))) :legato 0)))) (load-port-info newobj (quote ((0 0 0) (0 0 0) (0 0 0) (0 0 0) (0 0 0) (0 0 0) (0 0 0) (0 0 0) (0 0 0) (0 0 0)))) (init-mus-color newobj (quote nil)) (set-extra-pairs newobj (quote nil)) (set-patch-pairs newobj (quote nil)) (set-name newobj nil) (set-tonalite newobj nil) newobj) nil nil (pairlis (quote (measure onset approx fontsize staff cmnpref deltapict outport inport player zoom notechancolor? grillestep mode winsize winpos score-mode obj-mode cursor-mode show-stems scale)) (list nil nil 8 24 (quote gf) (let ((newobj (make-instance (quote edition-values)))) (setf (paper-size newobj) (om-make-point 600 800)) (setf (top-margin newobj) 2) (setf (left-margin newobj) 1) (setf (right-margin newobj) 1) (setf (bottom-margin newobj) 1) (setf (orientation newobj) nil) (setf (scale newobj) nil) (setf (system-space newobj) (quote (1))) (setf (system-color newobj) (quote nil)) (setf (line-space newobj) 1) (setf (title newobj) nil) (setf (show-title? newobj) nil) (setf (show-page? newobj) nil) (setf (sheet-id newobj) nil) (setf (page-mode newobj) nil) newobj) (om-make-point 0 0) nil nil (quote :fluidsynth) 1 nil 1000 0 (om-make-point 590 353) (om-make-point 400 23) 0 1 (quote :normal) (quote t) nil)) t nil nil nil (quote nil)))) (when (fboundp (quote set-active)) (set-active box nil)) box))) (quote ((19 0 1 0 nil 0) (17 0 2 0 nil 0) (2 0 11 1 nil 0) (18 0 12 0 nil 0) (0 0 12 1 nil 0) (13 0 12 2 nil 0) (7 0 14 0 nil 0) (6 0 14 1 nil 0) (5 0 14 2 nil 0) (4 0 14 3 nil 0) (3 0 14 4 nil 0) (10 0 15 0 nil 0) (9 0 15 1 nil 0) (15 0 16 0 nil 0) (17 0 16 1 nil 0) (8 0 18 1 nil 0) (16 0 19 0 nil 0) (12 0 19 1 nil 0) (14 0 19 3 nil 0) (1 0 20 1 nil 0))) nil 7.04))
