; OM File Header - Saved 2024/12/30 12:27:52
; (7.05 :patc (om-make-point 80 279) (om-make-point 50 50) (om-make-point 1128 641) "" 183 0 nil "2024/12/30 12:27:52")
; End File Header
(in-package :om)(load-lib-for (quote ("OM-Backtrack" "OM-Screamer")))(setf *om-current-persistent* (om-load-patch1 "00c-variables" (quote ((let ((box (om-load-boxcall (quote genfun) "LIST-OF-CHORDS-INV" (quote list-of-chords-inv) (quote ((om-load-inputfun (quote input-funbox) "list" "N-CHORDS" (list 3 4 3)) (om-load-inputfun (quote input-funbox) "list" "DOMAIN" (list 6000 6200 6400 6500 6700 6900 7100 7200)))) (om-make-point 563 320) nil nil nil nil 1))) (when (fboundp (quote set-active)) (set-active box nil)) box) (let ((box (om-load-boxcall (quote genfun) "LIST-OF-LISTS-OFV" (quote list-of-lists-ofv) (quote ((om-load-inputfun (quote input-funbox) "list" "N-VARS" (list 3 4 3)) (om-load-inputfunmenu1 (quote input-funmenu) "screamer-variable" "VARIABLES" "an-integer-betweenv" (list (list "an-integer-betweenv" "an-integer-betweenv") (list "a-member-ofv" "a-member-ofv") (list "a-random-member-ofv" "a-random-member-ofv") (list "an-integerv" "an-integerv") (list "an-integer-abovev" "an-integer-abovev") (list "an-integer-belowv" "an-integer-belowv") (list "a-realv" "a-realv") (list "a-real-abovev" "a-real-abovev") (list "a-real-belowv" "a-real-belowv") (list "a-real-betweenv" "a-real-betweenv") (list "a-numberv" "a-numberv") (list "a-booleanv" "a-booleanv"))))) (om-make-point 463 318) nil nil nil nil 1))) (when (fboundp (quote set-active)) (set-active box nil)) box) (let ((box (om-load-boxcall (quote genfun) "LIST-OFVS" (quote list-ofvs) (quote ((om-load-inputfun (quote input-funbox) "integer" "N-VARS" 3) (om-load-inputfunmenu1 (quote input-funmenu) "screamer-variable" "VARIABLES" "an-integer-betweenv" (list (list "an-integer-betweenv" "an-integer-betweenv") (list "a-member-ofv" "a-member-ofv") (list "a-random-member-ofv" "a-random-member-ofv") (list "an-integerv" "an-integerv") (list "an-integer-abovev" "an-integer-abovev") (list "an-integer-belowv" "an-integer-belowv") (list "a-realv" "a-realv") (list "a-real-abovev" "a-real-abovev") (list "a-real-belowv" "a-real-belowv") (list "a-real-betweenv" "a-real-betweenv") (list "a-numberv" "a-numberv") (list "a-booleanv" "a-booleanv"))) (om-load-inputfun (quote input-funbox) "list" "ARGS" (list 0 10)))) (om-make-point 396 318) nil nil nil nil 1))) (when (fboundp (quote set-active)) (set-active box nil)) box) (let ((box (om-load-editor-box1 "TEXTFILE 4" (quote textfile) (quote ((om-load-inputfun (quote input-funbox) "object" "self" nil) (om-load-inputfun (quote input-funbox) "input data or text" "exp-list" nil) (om-load-inputfunmenu1 (quote input-funmenu) "append or supersede" "ed-mode" "supersede" (list (list "append" "append") (list "supersede" "supersede"))) (om-load-inputfunmenu1 (quote input-funmenu) "eval interpretation mode" "eval-mode" "list" (list (list "text" "text") (list "data list" "data") (list "list" "list") (list "value" "value"))))) (om-make-point 390 226) (om-make-point 296 43) (load-buffer-textfile (quote ("[41080 integer 0:5 enumerated-domain:(5 4 3 2 1 0)]" "" "")) (quote textfile) "supersede" "list") nil nil (pairlis (quote (winpos winsize)) (list (om-make-point 10 40) (om-make-point 335 275))) t nil nil nil (quote nil)))) (when (fboundp (quote set-active)) (set-active box nil)) box) (let ((box (om-load-boxcall (quote bastype) "aux 3" (quote t) (quote nil) (om-make-point 566 89) (om-make-point 91 30) (list 0 1 2 3 4 5) "(0 1 2 3 4 5)" nil))) (when (fboundp (quote set-active)) (set-active box nil)) box) (let ((box (om-load-boxcall (quote bastype) "aux 2" (quote t) (quote nil) (om-make-point 436 89) (om-make-point 110 30) "a-member-ofv" "\"a-member-ofv\"" nil))) (when (fboundp (quote set-active)) (set-active box nil)) box) (let ((box (om-load-boxcall (quote genfun) "SCREAMER-VARIABLE" (quote screamer-variable) (quote ((om-load-inputfunmenu1 (quote input-funmenu) "screamer-variable" "VAR" "a-member-ofv" (list (list "an-integer-betweenv" "an-integer-betweenv") (list "a-member-ofv" "a-member-ofv") (list "a-random-member-ofv" "a-random-member-ofv") (list "an-integerv" "an-integerv") (list "an-integer-abovev" "an-integer-abovev") (list "an-integer-belowv" "an-integer-belowv") (list "a-realv" "a-realv") (list "a-real-abovev" "a-real-abovev") (list "a-real-belowv" "a-real-belowv") (list "a-real-betweenv" "a-real-betweenv") (list "a-numberv" "a-numberv") (list "a-booleanv" "a-booleanv"))) (om-load-inputfun (quote input-funbox) "list" "ARGS" (list 0 10)))) (om-make-point 490 133) nil nil nil nil 1))) (when (fboundp (quote set-active)) (set-active box nil)) box) (let ((box (om-load-editor-box1 "TEXTFILE 3" (quote textfile) (quote ((om-load-inputfun (quote input-funbox) "object" "self" nil) (om-load-inputfun (quote input-funbox) "input data or text" "exp-list" nil) (om-load-inputfunmenu1 (quote input-funmenu) "append or supersede" "ed-mode" "supersede" (list (list "append" "append") (list "supersede" "supersede"))) (om-load-inputfunmenu1 (quote input-funmenu) "eval interpretation mode" "eval-mode" "list" (list (list "text" "text") (list "data list" "data") (list "list" "list") (list "value" "value"))))) (om-make-point 185 586) (om-make-point 309 36) (load-buffer-textfile (quote ("[41077 integer 0:5 enumerated-domain:(5 4 3 2 1 0)]" "" "")) (quote textfile) "supersede" "list") nil nil (pairlis (quote (winpos winsize)) (list (om-make-point 10 40) (om-make-point 335 275))) t nil nil nil (quote nil)))) (when (fboundp (quote set-active)) (set-active box nil)) box) (let ((box (om-load-editor-box1 "TEXTFILE 2" (quote textfile) (quote ((om-load-inputfun (quote input-funbox) "object" "self" nil) (om-load-inputfun (quote input-funbox) "input data or text" "exp-list" nil) (om-load-inputfunmenu1 (quote input-funmenu) "append or supersede" "ed-mode" "supersede" (list (list "append" "append") (list "supersede" "supersede"))) (om-load-inputfunmenu1 (quote input-funmenu) "eval interpretation mode" "eval-mode" "list" (list (list "text" "text") (list "data list" "data") (list "list" "list") (list "value" "value"))))) (om-make-point 203 110) (om-make-point 126 47) (load-buffer-textfile (quote ("[41077 number]" "" "")) (quote textfile) "supersede" "list") nil nil (pairlis (quote (winpos winsize)) (list (om-make-point 10 40) (om-make-point 335 275))) t nil nil nil (quote nil)))) (when (fboundp (quote set-active)) (set-active box nil)) box) (let ((box (om-load-editor-box1 "TEXTFILE" (quote textfile) (quote ((om-load-inputfun (quote input-funbox) "object" "self" nil) (om-load-inputfun (quote input-funbox) "input data or text" "exp-list" nil) (om-load-inputfunmenu1 (quote input-funmenu) "append or supersede" "ed-mode" "supersede" (list (list "append" "append") (list "supersede" "supersede"))) (om-load-inputfunmenu1 (quote input-funmenu) "eval interpretation mode" "eval-mode" "list" (list (list "text" "text") (list "data list" "data") (list "list" "list") (list "value" "value"))))) (om-make-point 216 326) (om-make-point 126 47) (load-buffer-textfile (quote ("[41077 number]" "" "")) (quote textfile) "supersede" "list") nil nil (pairlis (quote (winpos winsize)) (list (om-make-point 10 40) (om-make-point 335 275))) t nil nil nil (quote nil)))) (when (fboundp (quote set-active)) (set-active box nil)) box) (let ((box (om-load-boxcall (quote bastype) "aux" (quote t) (quote nil) (om-make-point 74 352) (om-make-point 91 30) (list 0 1 2 3 4 5) "(0 1 2 3 4 5)" nil))) (when (fboundp (quote set-active)) (set-active box nil)) box) (let ((box (om-load-boxcall (quote lispfun) "MEMBERV" (quote screamer:memberv) (quote ((om-load-inputfun (quote input-funbox) "X" "X" nil) (om-load-inputfun (quote input-funbox) "SEQUENCE" "SEQUENCE" nil))) (om-make-point 13 386) nil nil nil nil 1))) (when (fboundp (quote set-active)) (set-active box nil)) box) (let ((box (om-load-seqbox "SEQUENCE 2" (quote sequence) (quote ((om-load-inputfun (quote input-funbox) "something" "PATCH" nil) (om-load-inputfun (quote input-funbox) "more things" "OPPATCH" nil))) (om-make-point 135 526) nil nil nil 2))) (when (fboundp (quote set-active)) (set-active box nil)) box) (let ((box (om-load-boxcall (quote genfun) "ASSERT! 2" (quote assert!) (quote ((om-load-inputfun (quote input-funbox) "boolean" "X" nil))) (om-make-point 18 444) nil nil nil nil 1))) (when (fboundp (quote set-active)) (set-active box nil)) box) (let ((box (om-load-boxcall (quote lispfun) "NUMBERPV" (quote screamer:numberpv) (quote ((om-load-inputfun (quote input-funbox) "X" "X" nil))) (om-make-point 27 109) nil nil nil nil 1))) (when (fboundp (quote set-active)) (set-active box nil)) box) (let ((box (om-load-boxcall (quote lispfun) "MAKE-VARIABLE 2" (quote screamer:make-variable) (quote nil) (om-make-point 135 56) nil nil "&" nil 1))) (when (fboundp (quote set-active)) (set-active box nil)) box) (let ((box (om-load-boxcall (quote genfun) "ASSERT!" (quote assert!) (quote ((om-load-inputfun (quote input-funbox) "boolean" "X" nil))) (om-make-point 34 174) nil nil nil nil 1))) (when (fboundp (quote set-active)) (set-active box nil)) box) (let ((box (om-load-seqbox "SEQUENCE" (quote sequence) (quote ((om-load-inputfun (quote input-funbox) "something" "PATCH" nil) (om-load-inputfun (quote input-funbox) "more things" "OPPATCH" nil))) (om-make-point 137 258) nil nil nil 2))) (when (fboundp (quote set-active)) (set-active box nil)) box) (let ((box (om-load-boxcomment "comment" (om-make-point 328 34) (quote "THIS TUTORIAL IS UNDER CONSTRUCTION.") "" (om-make-point 95 15) nil (om-make-color 0 0 0) (om-make-font "Verdana" 14.0D0 :family "Verdana" :style (quote (:plain)) :mode (quote nil))))) (when (fboundp (quote set-active)) (set-active box nil)) box))) (quote ((6 0 3 1 nil 0) (5 0 6 0 nil 0) (4 0 6 1 nil 0) (12 1 7 1 nil 0) (15 0 8 1 nil 0) (17 1 9 1 nil 0) (17 1 11 0 nil 0) (10 0 11 1 nil 0) (13 0 12 0 nil 0) (17 1 12 1 nil 0) (11 0 13 0 nil 0) (15 0 14 0 nil 0) (14 0 16 0 nil 0) (16 0 17 0 nil 0) (15 0 17 1 nil 0))) nil 7.05))
