; OM File Header - Saved 2025/09/19 20:24:59
; (7.05 :patc (om-make-point 314 67) (om-make-point 50 50) (om-make-point 605 557) "" 183 0 nil "2025/09/19 20:24:59")
; End File Header
(in-package :om)(load-lib-for (quote ("OM-Screamer" "OM-Backtrack")))(setf *om-current-persistent* (om-load-patch1 "00e-solution" (quote ((let ((box (om-load-boxcall (quote lispfun) "PRINT" (quote print) (quote ((om-load-inputfun (quote input-funbox) "SOMETHING" "SOMETHING" nil))) (om-make-point 322 367) nil nil nil nil 1))) (when (fboundp (quote set-active)) (set-active box nil)) box) (let ((box (om-load-boxcall (quote genfun) "FOR-EFFECTS" (quote for-effects) (quote ((om-load-inputfun (quote input-funbox) "forms" "FORMS" nil))) (om-make-point 305 420) nil nil nil nil 1))) (when (fboundp (quote set-active)) (set-active box nil)) box) (let ((box (om-load-boxcall (quote bastype) "aux 3" (quote t) (quote nil) (om-make-point 215 389) (om-make-point 27 30) 2 "2" nil))) (when (fboundp (quote set-active)) (set-active box nil)) box) (let ((box (om-load-boxcall (quote genfun) "N-VALUES" (quote n-values) (quote ((om-load-inputfun (quote input-funbox) "integer" "N" 10) (om-load-inputfun (quote input-funbox) "forms" "FORMS" nil))) (om-make-point 224 420) nil nil nil nil 1))) (when (fboundp (quote set-active)) (set-active box nil)) box) (let ((box (om-load-boxcall (quote genfun) "ONE-VALUE" (quote one-value) (quote ((om-load-inputfun (quote input-funbox) "expressions" "EXPRESSION" nil))) (om-make-point 59 421) nil nil nil nil 1))) (when (fboundp (quote set-active)) (set-active box nil)) box) (let ((box (om-load-boxcall (quote genfun) "ALL-VALUES" (quote all-values) (quote ((om-load-inputfun (quote input-funbox) "expressions" "EXPRESSIONS" nil))) (om-make-point 137 419) nil nil nil nil 1))) (when (fboundp (quote set-active)) (set-active box nil)) box) (let ((box (om-load-boxcall (quote genfun) "LINEAR-FORCE" (quote linear-force) (quote ((om-load-inputfun (quote input-funbox) "variable" "VARIABLE" nil))) (om-make-point 253 115) nil nil "#" nil 1))) (when (fboundp (quote set-active)) (set-active box nil)) box) (let ((box (om-load-boxcall (quote genfun) "STATIC-ORDERING" (quote static-ordering) (quote ((om-load-inputfun (quote input-funbox) "force function" "FORCE-FUNCTION" nil))) (om-make-point 209 194) nil nil nil nil 1))) (when (fboundp (quote set-active)) (set-active box nil)) box) (let ((box (om-load-boxcall (quote bastype) "aux 2" (quote t) (quote nil) (om-make-point 141 69) (om-make-point 91 30) (list 0 1 2 3 4 5) "(0 1 2 3 4 5)" nil))) (when (fboundp (quote set-active)) (set-active box nil)) box) (let ((box (om-load-boxcall (quote bastype) "aux" (quote t) (quote nil) (om-make-point 21 67) (om-make-point 110 30) "a-member-ofv" "\"a-member-ofv\"" nil))) (when (fboundp (quote set-active)) (set-active box nil)) box) (let ((box (om-load-boxcall (quote genfun) "SCREAMER-VARIABLE" (quote screamer-variable) (quote ((om-load-inputfunmenu1 (quote input-funmenu) "screamer-variable" "VAR" "a-member-ofv" (list (list "an-integer-betweenv" "an-integer-betweenv") (list "a-member-ofv" "a-member-ofv") (list "a-random-member-ofv" "a-random-member-ofv") (list "an-integerv" "an-integerv") (list "an-integer-abovev" "an-integer-abovev") (list "an-integer-belowv" "an-integer-belowv") (list "a-realv" "a-realv") (list "a-real-abovev" "a-real-abovev") (list "a-real-belowv" "a-real-belowv") (list "a-real-betweenv" "a-real-betweenv") (list "a-numberv" "a-numberv") (list "a-booleanv" "a-booleanv"))) (om-load-inputfun (quote input-funbox) "list" "ARGS" (list 0 10)))) (om-make-point 90 108) nil nil nil nil 1))) (when (fboundp (quote set-active)) (set-active box nil)) box) (let ((box (om-load-boxcall (quote genfun) "SOLUTION" (quote solution) (quote ((om-load-inputfun (quote input-funbox) "X" "X" nil) (om-load-inputfun (quote input-funbox) "ordering force function" "FORCE-FUNCTION" nil))) (om-make-point 167 287) nil nil nil nil 1))) (when (fboundp (quote set-active)) (set-active box nil)) box) (let ((box (om-load-boxcomment "comment" (om-make-point 328 34) (quote "THIS TUTORIAL IS UNDER CONSTRUCTION.") "" (om-make-point 91 27) nil (om-make-color 0 0 0) (om-make-font "Verdana" 14.0D0 :family "Verdana" :style (quote (:plain)) :mode (quote nil))))) (when (fboundp (quote set-active)) (set-active box nil)) box))) (quote ((11 0 0 0 nil 0) (0 0 1 0 nil 0) (2 0 3 0 nil 0) (11 0 3 1 nil 0) (11 0 4 0 nil 0) (11 0 5 0 nil 0) (6 0 7 0 nil 0) (9 0 10 0 nil 0) (8 0 10 1 nil 0) (10 0 11 0 nil 0) (7 0 11 1 nil 0))) nil 7.05))
